<?xml version="1.0" standalone="no"?>
<!DOCTYPE svg PUBLIC "-//W3C//DTD SVG 1.1//EN" "http://www.w3.org/Graphics/SVG/1.1/DTD/svg11.dtd" >
<!--
2013-9-30: Created.
-->
<svg>
<metadata>
Created by iconfont
</metadata>
<defs>

<font id="mms-iconfont" horiz-adv-x="1024" >
  <font-face
    font-family="mms-iconfont"
    font-weight="500"
    font-stretch="normal"
    units-per-em="1024"
    ascent="896"
    descent="-128"
  />
    <missing-glyph />
    
    <glyph glyph-name="wodepeiyangfangan" unicode="&#59033;" d="M620.617143 856.356571h-213.577143 214.016-0.438857z m202.605714-50.102857a102.692571 102.692571 0 0 0 96.256-103.131428v-690.907429c0-57.051429-45.714286-103.643429-101.814857-103.643428H206.262857c-56.173714 0-101.814857 46.518857-101.814857 103.643428V703.122286c0 54.857143 42.203429 99.474286 95.305143 102.985143v1.243428c0.877714 0 1.609143 0.219429 2.486857 0.219429h97.792a101.156571 101.156571 0 0 1-1.682286-16.091429c0-40.740571 28.891429-80.822857 65.097143-80.822857h296.521143c34.377143 0 63.341714 40.082286 63.195429 80.822857 0 5.485714-0.585143 10.898286-1.462858 16.091429h96.548572c1.682286 0 3.218286-0.146286 4.754286-0.365715v-0.877714l0.146285-0.073143zM620.982857 859.428571c23.625143-0.365714 42.422857-21.796571 42.422857-48.420571 0-26.843429-19.017143-48.493714-41.691428-48.493714h-214.308572c-23.625143 0-42.642286 21.723429-42.642285 48.493714 0 26.624 18.724571 48.054857 42.203428 48.420571h214.016z m-272.091428-339.602285a40.740571 40.740571 0 0 1 0-81.481143H675.108571a40.740571 40.740571 0 0 1 0 81.481143H348.891429z m0-271.652572a40.740571 40.740571 0 1 1 0-81.481143H675.108571a40.740571 40.740571 0 0 1 0 81.481143H348.891429z"  horiz-adv-x="1024" />

    
    <glyph glyph-name="xingzhuang" unicode="&#59032;" d="M36.571429 896v-293.302857h950.857142V896H36.571429z m775.533714-183.222857H628.809143v73.069714h183.442286v-73.069714h-0.146286zM36.571429-128h950.857142V165.302857H36.571429V-128z m592.237714 183.222857h183.442286v-73.069714H628.809143v73.069714zM36.571429 241.810286h950.857142V535.405714H36.571429v-293.522285z m592.237714 183.369143h183.442286v-73.142858H628.809143v73.142858z"  horiz-adv-x="1024" />

    
    <glyph glyph-name="shanchu2" unicode="&#59031;" d="M915.2 409.6L704 128h96L960 352l160-217.6H1216l-211.2 281.6L1190.4 640h-96L960 467.2 825.6 640h-96l185.6-230.4zM1670.4 832c32 0 57.6-25.6 57.6-57.6v-787.2c0-32-25.6-51.2-51.2-51.2h-1216L83.2 384 448 832h1222.4m0 64H422.4L0 384l428.8-512h1248c64 0 115.2 51.2 115.2 115.2V774.4c0 64-57.6 121.6-121.6 121.6z"  horiz-adv-x="1792" />

    
    <glyph glyph-name="PK" unicode="&#59030;" d="M1.023591-127.590564h117.712914V290.853259h298.888445q354.67413 0 354.162335 303.801679 0 300.935626-352.115154 300.935626H1.023591v-1023.590564z m411.483406 921.231508a273.298681 273.298681 0 0 0 181.17553-50.155938 171.041983 171.041983 0 0 0 60.391843-149.034786 189.466613 189.466613 0 0 0-58.344662-151.90084 285.27469 285.27469 0 0 0-183.222711-50.155937H118.736505V793.640944h293.770492z m654.07437-429.908037V896H949.892043v-1023.590564h116.689324V230.666134l159.680128 150.467812L1677.664934-127.590564h157.632947l-527.14914 584.67493L1770.811675 895.590564h-153.538584z"  horiz-adv-x="1836" />

    
    <glyph glyph-name="qushi" unicode="&#59029;" d="M102.390321-124.032496h60.152481l1.91976 319.192101h-62.072241l1.91976-321.175853m259.167604 0h60.152481V256.335958l-62.072241 1.983752 1.91976-380.368454m317.400325-3.967504h60.792401V383.488064l-60.792401 4.031496 1.91976-515.583552m256.607924 2.047744l57.592801 1.983752-1.91976 636.144482h-57.592801l1.91976-639.92001m59.512561 767.904012l-5.75928 255.968004-253.408324-62.776153 99.187602-77.750281-287.964005-355.795526-193.895763 209.701788-331.478565-335.958006 50.553681-39.35508L360.918005 520.23897l190.056243-203.686539 340.437446 403.59755L998.918255 639.904012"  horiz-adv-x="1024" />

    
    <glyph glyph-name="liebiaotongyiwenjian" unicode="&#59028;" d="M672.914286 896H190.171429C124.342857 896 73.142857 844.8 73.142857 778.971429v-789.942858c0-65.828571 51.2-117.028571 117.028572-117.028571h636.342857c65.828571 0 117.028571 51.2 117.028571 117.028571V618.057143L672.914286 896zM877.714286 603.428571H731.428571c-7.314286 0-43.885714 21.942857-51.2 29.257143-7.314286 7.314286-21.942857 36.571429-21.942857 43.885715V822.857143l219.428572-219.428572z m0-585.142857c0-58.514286-58.514286-73.142857-73.142857-73.142857H219.428571c-51.2 0-73.142857 21.942857-73.142857 73.142857L138.971429 742.4C138.971429 793.6 168.228571 822.857143 219.428571 822.857143h365.714286v-146.285714c0-65.828571 80.457143-146.285714 146.285714-146.285715h146.285715v-512zM292.571429 384h438.857142v-73.142857H292.571429V384z m219.428571 146.285714H292.571429V603.428571h219.428571v-73.142857z m-219.428571-365.714285h438.857142v-73.142858H292.571429v73.142858z"  horiz-adv-x="1024" />

    
    <glyph glyph-name="professionalgeneral" unicode="&#59027;" d="M892.8 780.8v-806.4c0-19.2-19.2-38.4-38.4-38.4H246.4c-64 0-108.8 38.4-108.8 96 0 64 51.2 89.6 108.8 89.6h505.6c38.4 0 76.8 32 76.8 76.8V819.2c0 38.4-38.4 76.8-76.8 76.8H118.4C73.6 896 60.8 864 60.8 819.2v-876.8c0-38.4 32-70.4 76.8-70.4h748.8c38.4 0 76.8 32 76.8 76.8v832c0 19.2-19.2 38.4-38.4 38.4-25.6 0-32-12.8-32-38.4z m0 0M291.2 64h499.2c25.6 0 38.4-12.8 38.4-38.4 0-25.6-12.8-25.6-38.4-25.6H291.2c-25.6 0-38.4 0-38.4 25.6s12.8 38.4 38.4 38.4z m0 0"  horiz-adv-x="1024" />

    
    <glyph glyph-name="gengduo1" unicode="&#59026;" d="M512 691.2C566.613333 691.2 614.4 738.986667 614.4 793.6S566.613333 896 512 896 409.6 848.213333 409.6 793.6 457.386667 691.2 512 691.2z m0-204.8C457.386667 486.4 409.6 438.613333 409.6 384S457.386667 281.6 512 281.6 614.4 329.386667 614.4 384 566.613333 486.4 512 486.4z m0-409.6c-54.613333 0-102.4-47.786667-102.4-102.4S457.386667-128 512-128 614.4-80.213333 614.4-25.6 566.613333 76.8 512 76.8z"  horiz-adv-x="1024" />

    
    <glyph glyph-name="peizhi" unicode="&#59024;" d="M918.80992 320h-64V832c0 38.4 6.4 64-32 64h-6.4c-38.4 0-25.6-25.6-25.6-64v-512h-64c-32 0-64 12.8-64-25.6 0-38.4 32-38.4 70.4-38.4h57.6v-320c0-38.4-12.8-64 25.6-64h6.4c38.4 0 32 32 32 64v320h57.6c32 0 64 6.4 70.4 44.8 0 12.8-25.6 19.2-64 19.2zM592.40992 704h-57.6V832c0 12.8 6.4 64-32 64h-6.4c-32 0-25.6-51.2-25.6-64v-128h-57.6c-38.4 0-70.4 0-70.4-32 0-38.4 25.6-32 64-32h64v-704c0-57.6-6.4-64 25.6-64h6.4c38.4 0 32 6.4 32 64V640h64c32 0 57.6 0 57.6 32 0 38.4-32 32-64 32z m-313.6-512h-64V832c0 12.8 0 64-25.6 64h-6.4c-38.4 0-32-25.6-32-38.4V192H93.20992c-38.4 0-70.4 0-64-32 0-25.6 19.2-32 57.6-32h64v-166.4c0-57.6-6.4-89.6 32-89.6h6.4c38.4 0 25.6 32 25.6 89.6V128h64c32 0 64 0 64 32 0 38.4-32 32-64 32z"  horiz-adv-x="1024" />

    
    <glyph glyph-name="shujupeizhi" unicode="&#59025;" d="M640 384c0-19.2 0-44.8-12.8-64h64c6.4 19.2 12.8 44.8 12.8 64 0 108.8-83.2 192-198.4 192C384 576 320 499.2 320 364.8c12.8-115.2 108.8-172.8 198.4-172.8v57.6C441.6 256 384 300.8 384 371.2 384 448 409.6 512 505.6 512S640 441.6 640 384z m0 0M492.8-76.8l-6.4 12.8H409.6l-12.8 108.8-12.8 6.4c-38.4 12.8-76.8 32-108.8 64L256 128l-108.8-51.2L64 230.4l89.6 76.8v19.2c-6.4 12.8-6.4 38.4-6.4 57.6 0 19.2 0 44.8 6.4 64v19.2L64 537.6l83.2 153.6L256 640l19.2 12.8c32 25.6 64 51.2 108.8 64l19.2 6.4 12.8 108.8h179.2l19.2-108.8 19.2-6.4c38.4-12.8 76.8-38.4 108.8-64l6.4-12.8 115.2 51.2 89.6-153.6-96-76.8v-19.2c6.4-38.4 6.4-83.2 0-121.6h70.4l-12.8 6.4v6.4c6.4 32 6.4 64 0 96v6.4l70.4 51.2c25.6 12.8 32 44.8 19.2 70.4l-89.6 153.6c-12.8 25.6-44.8 32-70.4 19.2l-89.6-25.6-6.4 6.4c-25.6 19.2-57.6 38.4-89.6 51.2h-6.4L640 844.8c6.4 25.6-19.2 51.2-44.8 51.2H409.6c-25.6 0-51.2-19.2-51.2-51.2l-12.8-83.2h-6.4c-32-12.8-57.6-32-83.2-51.2l-6.4-6.4-76.8 32c-25.6 12.8-57.6 6.4-76.8-19.2L6.4 563.2c-12.8-25.6-6.4-57.6 19.2-70.4l64-51.2v-6.4c-6.4-32-6.4-64 0-96v-6.4l-64-57.6c-25.6-12.8-32-44.8-19.2-70.4l89.6-153.6c12.8-25.6 44.8-32 70.4-19.2l89.6 25.6c25.6-19.2 64-44.8 89.6-57.6l12.8-76.8c0-25.6 25.6-51.2 51.2-51.2h70.4c6.4 0 6.4 6.4 6.4 6.4l6.4 44.8z m524.8 12.8H582.4s-6.4 0-6.4-6.4v-51.2c0-6.4 6.4-6.4 6.4-6.4h435.2c6.4 0 6.4 0 6.4 6.4v44.8c0 6.4 0 12.8-6.4 12.8z m-6.4 0M576 185.6v-51.2c0-6.4 6.4-6.4 6.4-6.4H1024v57.6c0 6.4-6.4 6.4-6.4 6.4H582.4s-6.4 0-6.4-6.4z m441.6-121.6H582.4c-6.4 0-6.4 0-6.4-6.4v-44.8c0-6.4 6.4-12.8 6.4-12.8h435.2c6.4 0 6.4 6.4 6.4 12.8v44.8l-6.4 6.4z m0 0"  horiz-adv-x="1024" />

    
    <glyph glyph-name="guanlian" unicode="&#59023;" d="M955.733333 896H409.6C334.506667 896 266.24 848.213333 273.066667 759.466667v-136.533334H136.533333C40.96 622.933333 0 581.973333 0 486.4v-477.866667c0-95.573333 40.96-136.533333 136.533333-136.533333h477.866667c95.573333 0 136.533333 40.96 136.533333 136.533333V486.4c0 95.573333-40.96 136.533333-136.533333 136.533333H477.866667v-68.266666h136.533333c47.786667 0 68.266667-20.48 68.266667-68.266667v-477.866667c0-47.786667-20.48-68.266667-68.266667-68.266666H136.533333c-47.786667 0-68.266667 20.48-68.266666 68.266666V486.4c0 47.786667 20.48 68.266667 68.266666 68.266667h136.533334v-273.066667c0-95.573333 40.96-136.533333 136.533333-136.533333h204.8v68.266666H409.6c-47.786667 0-68.266667 20.48-68.266667 68.266667V759.466667c0 47.786667 20.48 68.266667 68.266667 68.266666h546.133333c47.786667 0 68.266667-20.48 68.266667-68.266666v-477.866667c0-47.786667-20.48-68.266667-68.266667-68.266667h-136.533333v-68.266666h136.533333c95.573333 0 136.533333 40.96 136.533334 136.533333V759.466667c0 95.573333-40.96 136.533333-136.533334 136.533333z"  horiz-adv-x="1092" />

    
    <glyph glyph-name="profconStandards" unicode="&#59022;" d="M954.037267 444.42236h-318.012422V508.024845h318.012422v-63.602485z m6.360249-127.204969H636.024845V380.819876h318.012422l6.360249-63.602485z m0-127.204969H636.024845v63.602485h318.012422l6.360249-63.602485zM63.602484 158.21118v318.012422c0 19.080745 19.080745 31.801242 31.801243 31.801243h381.614907c25.440994 0 31.801242-19.080745 31.801242-31.801243v-318.012422c0-19.080745-12.720497-31.801242-31.801242-31.801242h-381.614907c-12.720497 0-31.801242 12.720497-31.801243 31.801242zM318.012422 698.832298h623.304348v-44.521739H318.012422V698.832298z m699.62733 190.807454H267.130435C228.968944 889.639752 190.807453 851.478261 190.807453 813.31677V571.6273289999999h-57.242236C69.962733 571.6273289999999 0 546.186335 0 488.944099v-330.732919c0-63.602484 50.881988-101.763975 114.484472-101.763975H190.807453v-108.124224c0-38.161491 38.161491-76.322981 76.322982-76.322981h667.826087c38.161491 0 82.68323 38.161491 82.68323 76.322981V889.639752z m-12.720497-31.801243M438.857143 418.981366l-38.161491 31.801243c-19.080745-19.080745-19.080745-19.080745-25.440994-31.801243L254.409938 272.695652 171.726708 361.73913000000005c-6.360248 6.360248 0 12.720497-6.360248 6.360249l-31.801243-38.161491c-12.720497-12.720497-12.720497-19.080745 0-25.440994L254.409938 183.65217399999995c6.360248-6.360248 12.720497-6.360248 12.720497-6.360249 6.360248 0 12.720497 0 12.720497 6.360249L445.217391 387.180124c-6.360248 6.360248-6.360248 25.440994-6.360248 31.801242z m0 0"  horiz-adv-x="1024" />

    
    <glyph glyph-name="zhuanyefenleipingjia" unicode="&#59021;" d="M466.471139 538.159126c0-25.560062-12.780031-57.51014-31.950078-76.680187-19.170047-19.170047-51.120125-31.950078-76.680187-31.950078H108.630265c-31.950078 0-57.51014 12.780031-76.680187 31.950078-19.170047 19.170047-31.950078 44.730109-31.950078 76.680187V787.369735C0 844.879875 51.120125 896 108.630265 896h249.210609c25.560062 0 57.51014-12.780031 76.680187-31.950078 19.170047-19.170047 31.950078-44.730109 31.950078-76.680187v-249.210609z m0-511.201248c0-57.51014-51.120125-108.630265-108.630265-108.630265H108.630265c-57.51014 0-108.630265 51.120125-108.630265 108.630265V276.168487C0 333.678627 51.120125 384.798752 108.630265 384.798752h249.210609c57.51014 0 108.630265-51.120125 108.630265-108.630265v-249.210609z m511.201248 511.201248c0-57.51014-51.120125-108.630265-108.630265-108.630265H619.831513c-31.950078 0-57.51014 12.780031-76.680187 31.950078-19.170047 19.170047-31.950078 44.730109-31.950078 76.680187V787.369735C511.201248 844.879875 562.321373 896 619.831513 896h249.210609c31.950078 0 57.51014-12.780031 76.680187-31.950078 19.170047-19.170047 31.950078-44.730109 31.950078-76.680187v-249.210609zM511.201248 148.368175c0 83.070203 44.730109 159.75039 115.020281 204.480499 70.290172 44.730109 159.75039 44.730109 236.430577 0 70.290172-44.730109 115.020281-121.410296 115.020281-204.480499 0-127.800312-108.630265-230.040562-230.040562-230.040562-127.800312 6.390016-236.430577 108.630265-236.430577 230.040562z m76.680187 0c0-57.51014 31.950078-108.630265 76.680187-134.190328 51.120125-25.560062 108.630265-25.560062 153.360375 0 51.120125 25.560062 76.680187 76.680187 76.680187 134.190328 0 83.070203-70.290172 153.360374-153.360374 153.360374-83.070203 6.390016-153.360374-63.900156-153.360375-153.360374z m0 0M1009.622465-43.332293c19.170047-19.170047 19.170047-51.120125 0-70.290172-19.170047-19.170047-51.120125-19.170047-70.290172 0l-89.460218 89.460219c-19.170047 19.170047-19.170047 51.120125 0 70.290171 19.170047 19.170047 51.120125 19.170047 70.290171 0l89.460219-89.460218z m0 0"  horiz-adv-x="1025" />

    
    <glyph glyph-name="fanhui" unicode="&#59020;" d="M1148.411215 447.800623H178.641745l382.803738 370.043614c19.140187 19.140187 19.140187 44.660436 0 63.800623-19.140187 19.140187-44.660436 19.140187-57.420561 0L12.760125 415.900312c-19.140187-19.140187-19.140187-44.660436 0-63.800624l491.264797-465.744548c19.140187-19.140187 44.660436-19.140187 57.420561 0 19.140187 19.140187 19.140187 44.660436 0 63.800623L178.641745 320.199377H1148.411215V447.800623z"  horiz-adv-x="1152" />

    
    <glyph glyph-name="quanxian" unicode="&#59019;" d="M902.4 768L512 896 121.6 768c-19.2 0-25.6-19.2-25.6-32v-499.2s19.2-83.2 96-166.4c64-64 211.2-140.8 275.2-179.2 12.8-6.4 19.2-6.4 19.2-12.8l6.4-6.4h12.8l12.8 6.4c38.4 19.2 230.4 115.2 300.8 185.6 83.2 76.8 96 160 96 166.4V736c12.8 12.8 0 32-12.8 32z m-44.8-556.8c-12.8-32-32-57.6-57.6-89.6l-6.4-6.4c-25.6-25.6-83.2-64-147.2-102.4-44.8-25.6-96-51.2-128-70.4-6.4 0-12.8 6.4-12.8 6.4-57.6 32-96 51.2-134.4 76.8-57.6 32-102.4 64-128 89.6l-6.4 6.4c-25.6 25.6-44.8 57.6-57.6 89.6-6.4 12.8-6.4 19.2-6.4 25.6V710.4L512 832 864 716.8v-480c0-6.4-6.4-19.2-6.4-25.6zM672 544C672 646.4 595.2 704 512 704S352 633.6 352 544c0-76.8 64-140.8 128-153.6v-224c0-25.6 12.8-38.4 32-38.4s32 12.8 32 32V256h102.4c12.8 0 25.6 12.8 25.6 32S659.2 320 646.4 320H544V384c64 19.2 128 83.2 128 160zM512 448C460.8 448 416 492.8 416 544S460.8 640 512 640 608 595.2 608 544 563.2 448 512 448z"  horiz-adv-x="1024" />

    
    <glyph glyph-name="quanxianshezhi" unicode="&#59147;" d="M512 192c11.7 0 21.3 9.6 21.3 21.3V364.6C593.8 374.79999999999995 640 427.3 640 490.7c0 70.7-57.3 128-128 128s-128-57.3-128-128c0-63.4 46.2-115.9 106.7-126.1v-151.3c0-11.7 9.6-21.3 21.3-21.3z m-85.3 298.7c0 47.1 38.2 85.3 85.3 85.3s85.3-38.2 85.3-85.3c0-47.1-38.2-85.3-85.3-85.3s-85.3 38.1-85.3 85.3zM896 448c-11.8 0-21.3-9.6-21.3-21.3v-97.8c0.9-175.6-290-319.3-362.7-347.8-72.7 28.4-363.6 172.2-362.7 348V702.8c175.6 12.8 238.2 35.8 362.5 86.5H512.1c124.3-50.7 187-73.7 362.6-86.5v-105.5c0-11.8 9.6-21.3 21.3-21.3 11.8 0 21.3 9.6 21.3 21.3V722.7c0 11.3-8.9 20.5-20.1 21.3-188.6 12.4-247 35.1-369 84.8C523 831 517.5 832 512 832s-11-1-16.2-3.1c-122-49.7-180.4-72.4-369-84.8-11.2-0.7-20.1-10-20.1-21.3v-393.7C105.5 98.20000000000005 503.6-64 511.9-64c0.1 0 0.1 0 0.1 0.1 0 0 0-0.1 0.1-0.1 8.3 0 406.4 162.2 405.2 393.1v97.6c0 11.7-9.5 21.3-21.3 21.3z"  horiz-adv-x="1024" />

    
    <glyph glyph-name="wofaqi" unicode="&#59017;" d="M848.457143 303.542857c14.628571 0 36.571429-14.628571 36.571428-36.571428v-299.885715c0-7.314286-14.628571-21.942857-36.571428-21.942857-7.314286 0-21.942857 0-29.257143 7.314286-7.314286 7.314286-7.314286 14.628571-7.314286 14.628571V266.971429c-7.314286 21.942857 14.628571 36.571429 36.571429 36.571428zM680.228571 164.571429h299.885715c21.942857 0 43.885714-21.942857 43.885714-36.571429s-14.628571-29.257143-43.885714-29.257143H680.228571s-7.314286 0-14.628571 7.314286c-7.314286 0-7.314286 7.314286-7.314286 14.628571 0 21.942857 14.628571 43.885714 29.257143 43.885715h-7.314286z m7.314286 0M877.714286 896H0v-950.857143h585.142857s-7.314286 234.057143 7.314286 270.628572c65.828571 146.285714 292.571429 182.857143 292.571428 182.857142V771.657143C877.714286 837.485714 877.714286 771.657143 877.714286 896zM475.428571 237.714286h-292.571428c-21.942857 0-36.571429 14.628571-36.571429 29.257143s14.628571 29.257143 36.571429 29.257142h299.885714c14.628571 0 29.257143-14.628571 29.257143-29.257142s-14.628571-29.257143-36.571429-29.257143z m146.285715 226.742857h-438.857143c-21.942857 0-36.571429 7.314286-36.571429 29.257143 0 14.628571 14.628571 29.257143 36.571429 29.257143h438.857143c14.628571 0 36.571429-14.628571 36.571428-29.257143s-21.942857-29.257143-36.571428-29.257143z m0 212.114286h-438.857143c-21.942857 0-36.571429 7.314286-36.571429 29.257142 0 14.628571 14.628571 29.257143 36.571429 29.257143h438.857143c14.628571 0 36.571429-14.628571 36.571428-29.257143s-21.942857-29.257143-36.571428-29.257142z"  horiz-adv-x="1024" />

    
    <glyph glyph-name="woshenpi" unicode="&#59018;" d="M219.428571 749.714286h512v-73.142857H219.428571V749.714286z m731.428572-658.285715c0 7.314286 7.314286 7.314286 7.314286 14.628572v14.628571l-7.314286 14.628572-7.314286 7.314285c-7.314286 7.314286-14.628571 7.314286-14.628571 0-7.314286 0-7.314286-7.314286-14.628572-14.628571-14.628571-14.628571-29.257143-29.257143-43.885714-36.571429l-36.571429-36.571428c-7.314286-7.314286-7.314286-7.314286-14.628571-7.314286s-7.314286 0-14.628571 7.314286l-7.314286 7.314286-14.628572 14.628571-14.628571 14.628571-7.314286 7.314286s-7.314286 7.314286-14.628571 7.314286-7.314286 0-14.628572-7.314286v-7.314286l-7.314285-7.314285-7.314286-7.314286-7.314286-7.314286c-7.314286-7.314286-7.314286-21.942857 7.314286-36.571428 0-7.314286 7.314286-7.314286 14.628571-14.628572l21.942858-21.942857 21.942857-21.942857 14.628571-14.628571c7.314286-7.314286 14.628571-7.314286 21.942857-7.314286 7.314286 0 14.628571 0 21.942857 7.314286l29.257143 29.257142 36.571429 36.571429 36.571428 36.571429c-7.314286 14.628571 0 21.942857 14.628572 29.257142z m-124.342857 175.542858c29.257143 0 51.2-7.314286 73.142857-14.628572 29.257143-14.628571 51.2-29.257143 65.828571-43.885714 14.628571-14.628571 29.257143-36.571429 43.885715-65.828572 7.314286-21.942857 14.628571-51.2 14.628571-73.142857 0-29.257143-7.314286-51.2-14.628571-73.142857-7.314286-21.942857-21.942857-43.885714-43.885715-65.828571-14.628571-14.628571-36.571429-29.257143-65.828571-43.885715-21.942857-7.314286-51.2-14.628571-73.142857-14.628571-29.257143 0-51.2 7.314286-80.457143 14.628571-21.942857 7.314286-43.885714 21.942857-65.828572 43.885715-14.628571 14.628571-29.257143 36.571429-43.885714 65.828571-7.314286 21.942857-14.628571 51.2-14.628571 73.142857 0 29.257143 7.314286 51.2 14.628571 73.142857 7.314286 21.942857 21.942857 43.885714 43.885714 65.828572l65.828572 43.885714c29.257143 7.314286 51.2 14.628571 80.457143 14.628572zM219.428571 603.428571h512v-73.142857H219.428571V603.428571zM146.285714 815.542857h658.285715v-351.085714H146.285714V815.542857zM0-3.657143c0-29.257143 29.257143-58.514286 58.514286-58.514286h563.2c-21.942857 36.571429-36.571429 117.028571-36.571429 168.228572C585.142857 237.714286 694.857143 340.114286 826.514286 340.114286c36.571429 0 95.085714-7.314286 124.342857-21.942857v146.285714h-73.142857V896H58.514286v-431.542857H0v-468.114286z m0 0"  horiz-adv-x="1024" />

    
    <glyph glyph-name="shengchengbaogao" unicode="&#59016;" d="M73.142857 91.428571v-146.285714h877.714286v146.285714H73.142857z m-36.571428 73.142858h921.6c-14.628571 0 29.257143-7.314286 43.885714-21.942858 14.628571-14.628571 21.942857-29.257143 21.942857-51.2v-146.285714c0-21.942857-7.314286-36.571429-21.942857-51.2-14.628571-14.628571-29.257143-21.942857-51.2-21.942857H73.142857c-21.942857 0-36.571429 7.314286-51.2 21.942857-14.628571 14.628571-21.942857 29.257143-21.942857 51.2v146.285714c0 21.942857 7.314286 36.571429 21.942857 51.2 14.628571 14.628571 29.257143 21.942857 51.2 21.942858H36.571429z m109.714285-7.314286c0-21.942857-14.628571-36.571429-36.571428-36.571429s-36.571429 14.628571-36.571429 36.571429V786.285714C73.142857 844.8 124.342857 896 182.857143 896h658.285714c58.514286 0 109.714286-51.2 109.714286-109.714286v-629.028571c0-14.628571-7.314286-21.942857-21.942857-29.257143-14.628571-7.314286-21.942857-7.314286-36.571429 0s-21.942857 21.942857-21.942857 29.257143V786.285714c7.314286 21.942857-7.314286 36.571429-29.257143 36.571429h-658.285714c-21.942857 0-36.571429-14.628571-36.571429-36.571429v-629.028571z m365.714286 263.314286c0-21.942857-14.628571-36.571429-36.571429-36.571429h-146.285714c-21.942857 0-36.571429 14.628571-36.571428 36.571429s14.628571 36.571429 36.571428 36.571428h146.285714c7.314286 0 21.942857-7.314286 29.257143-7.314286 0-7.314286 7.314286-21.942857 7.314286-29.257142z m219.428571 219.428571c0-21.942857-14.628571-36.571429-36.571428-36.571429h-365.714286c-21.942857 0-36.571429 14.628571-36.571428 36.571429s14.628571 36.571429 36.571428 36.571429h365.714286c21.942857 0 36.571429-14.628571 36.571428-36.571429z m0 0"  horiz-adv-x="1024" />

    
    <glyph glyph-name="yulan2" unicode="&#59015;" d="M607.085714-128H124.342857C43.885714-128 0-40.228571 0 47.542857V749.714286C0 837.485714 36.571429 896 124.342857 896h687.542857c80.457143 0 138.971429-58.514286 138.971429-138.971429V676.571429c0-14.628571-14.628571-29.257143-29.257143-29.257143-21.942857 0-43.885714 14.628571-43.885714 29.257143V757.028571c0 51.2-21.942857 65.828571-65.828572 65.828572H124.342857C73.142857 822.857143 73.142857 800.914286 73.142857 749.714286v-709.485715c0-43.885714 0-95.085714 51.2-95.085714h482.742857c14.628571 0 29.257143-21.942857 29.257143-43.885714 7.314286-14.628571-7.314286-29.257143-29.257143-29.257143m380.342857 36.571429c-7.314286 0-14.628571 7.314286-21.942857 14.628571l-117.028571 160.914286c-58.514286-36.571429-124.342857-58.514286-197.485714-51.2-168.228571 21.942857-292.571429 182.857143-270.628572 351.085714 21.942857 168.228571 153.6 241.371429 321.828572 234.057143C841.142857 603.428571 972.8 479.085714 950.857143 310.857143c-7.314286-73.142857-21.942857-124.342857-65.828572-182.857143l124.342858-175.542857c7.314286-7.314286 7.314286-14.628571 7.314285-21.942857 0-7.314286-7.314286-14.628571-14.628571-21.942857h-14.628572m-292.571428 629.028571c-138.971429 21.942857-234.057143-29.257143-248.685714-168.228571-14.628571-138.971429 73.142857-256 204.8-270.628572 138.971429-14.628571 212.114286 87.771429 226.742857 219.428572 21.942857 102.4-36.571429 204.8-182.857143 219.428571M263.314286 91.428571h-65.828572c-14.628571 0-29.257143 21.942857-29.257143 36.571429s14.628571 29.257143 29.257143 29.257143h65.828572c14.628571 0 29.257143-14.628571 29.257143-29.257143 7.314286-14.628571-7.314286-36.571429-29.257143-36.571429m21.942857 292.571429H175.542857c-21.942857 0-36.571429 29.257143-36.571428 43.885714 0 14.628571 14.628571 29.257143 36.571428 29.257143h109.714286c14.628571 0 29.257143-14.628571 29.257143-29.257143s-14.628571-43.885714-29.257143-43.885714m416.914286 292.571429H197.485714c-21.942857 0-36.571429 21.942857-36.571428 43.885714 0 14.628571 14.628571 29.257143 36.571428 29.257143h504.685715c14.628571 0 29.257143-14.628571 29.257142-29.257143 0-21.942857-14.628571-43.885714-29.257142-43.885714m0 0"  horiz-adv-x="1024" />

    
    <glyph glyph-name="xinzeng" unicode="&#59014;" d="M1024 349.866667H546.133333v-477.866667H477.866667V349.866667H0V418.133333h477.866667V896h68.266666v-477.866667h477.866667v-68.266666z"  horiz-adv-x="1024" />

    
    <glyph glyph-name="huidingbu" unicode="&#59013;" d="M542.800839 682.440692c-5.525732 5.525732-11.665434 8.18627-17.805136 9.618867-4.093135 2.046567-8.902568 2.762866-13.712002 2.762866-4.809433 0-9.618867-0.716299-13.712002-2.762866-6.139702-1.330269-12.381733-4.093135-17.805136-9.618867L143.617867 346.394324c-15.04227-15.04227-15.04227-38.373139 0-53.517738 15.04227-15.04227 38.373139-15.04227 53.517738 0L476.901369 572.64235l0-598.006995c0-19.237734 15.04227-34.280004 34.280004-34.280004 19.237734 0 34.280004 15.04227 34.280004 34.280004L545.461377 572.64235l279.765764-279.765764c15.04227-15.04227 38.373139-15.04227 53.517738 0 15.04227 15.04227 15.04227 38.373139 0 53.517738L542.800839 682.440692 542.800839 682.440692zM922.746078 831.94244 99.718997 831.94244c-19.237734 0-34.280004-15.04227-34.280004-34.280004 0-19.237734 15.04227-34.280004 34.280004-34.280004l822.924753 0c19.237734 0 34.280004 15.04227 34.280004 34.280004C957.026082 816.797842 941.881483 831.94244 922.746078 831.94244L922.746078 831.94244z"  horiz-adv-x="1024" />

    
    <glyph glyph-name="zhankai11" unicode="&#59012;" d="M28.16 580.06528 512.00512 30.72 995.84 580.06528 28.16 580.06528Z"  horiz-adv-x="1024" />

    
    <glyph glyph-name="shouqi1" unicode="&#59010;" d="M232.727273 896l558.545454-512L232.727273-128V896z"  horiz-adv-x="1024" />

    
    <glyph glyph-name="zhankai1" unicode="&#59011;" d="M1877.333333 896L938.666667-128 0 896h1877.333333z"  horiz-adv-x="1877" />

    
    <glyph glyph-name="shouyedaohang" unicode="&#59009;" d="M1008.43008 429.511111L553.318969 878.933333c-22.755556 22.755556-62.577778 22.755556-85.333333 0L18.563413 429.511111c-39.822222-39.822222-11.377778-102.4 45.511111-102.4h17.066667c28.444444 5.688889 91.022222-22.755556 91.022222-56.888889v-341.333333c0-34.133333 22.755556-56.888889 56.888889-56.888889h273.066667c34.133333 0 68.266667 22.755556 68.266667 56.888889v227.555555c0 34.133333 22.755556 56.888889 56.888888 56.888889h56.888889c34.133333 0 56.888889-22.755556 56.888889-56.888889v-227.555555c0-34.133333 51.2-56.888889 85.333334-56.888889h11.377777c34.133333 0 22.755556 22.755556 22.755556 56.888889v341.333333c0 34.133333 62.577778 62.577778 96.711111 62.577778h11.377778c51.2 0 79.644444 62.577778 39.822222 96.711111z m0 0M1008.43008 429.511111L553.318969 878.933333c-22.755556 22.755556-62.577778 22.755556-85.333333 0L18.563413 429.511111c-39.822222-39.822222-11.377778-102.4 45.511111-102.4h17.066667c28.444444 5.688889 91.022222-22.755556 91.022222-56.888889v-341.333333c0-34.133333 22.755556-56.888889 56.888889-56.888889h273.066667c34.133333 0 68.266667 22.755556 68.266667 56.888889v227.555555c0 34.133333 22.755556 56.888889 56.888888 56.888889h56.888889c34.133333 0 56.888889-22.755556 56.888889-56.888889v-227.555555c0-34.133333 51.2-56.888889 85.333334-56.888889h11.377777c34.133333 0 22.755556 22.755556 22.755556 56.888889v341.333333c0 34.133333 62.577778 62.577778 96.711111 62.577778h11.377778c51.2 0 79.644444 62.577778 39.822222 96.711111z m0 0"  horiz-adv-x="1027" />

    
    <glyph glyph-name="biaozhunguanli" unicode="&#58998;" d="M589.986755 136.476821c-61.033113-13.562914-122.066225-20.344371-196.662252-20.344371-217.006623 0-393.324503 67.81457-393.324503 149.192053v-176.31788c0-81.377483 183.099338-149.192053 400.10596-149.192053 81.377483 0 155.97351 13.562914 217.006623 27.125827-20.344371 40.688742-33.907285 81.377483-33.907285 128.847682 6.781457 13.562914 6.781457 27.125828 6.781457 40.688742z m-189.880795 339.072848c217.006623 0 400.10596 67.81457 400.105961 149.192053V746.807947C800.211921 828.18543 617.112583 896 400.10596 896S0 828.18543 0 746.807947V624.741722c0-81.377483 183.099338-149.192053 400.10596-149.192053z m400.105961-108.503311V536.582781c0-81.377483-183.099338-149.192053-400.105961-149.192053S0 455.205298 0 536.582781v-176.31788c0-81.377483 183.099338-149.192053 400.10596-149.192053 81.377483 0 162.754967 13.562914 223.78808 27.125827 40.688742 61.033113 101.721854 108.503311 176.317881 128.847683z m257.695364-230.569537h-20.344371c-13.562914 0-20.344371 6.781457-20.344371 20.344371l-13.562914 27.125828c-6.781457 6.781457-6.781457 20.344371 6.781457 27.125828l6.781457 13.562914c6.781457 6.781457 6.781457 20.344371 0 27.125827l-27.125828 27.125828c-6.781457 6.781457-20.344371 6.781457-27.125828 0l-13.562913-13.562914c-6.781457-6.781457-20.344371-6.781457-27.125828-6.781457l-27.125828 13.562914S881.589404 285.668874 881.589404 292.450331v20.344371c0 13.562914-6.781457 20.344371-20.344371 20.344371h-33.907285c-13.562914 0-20.344371-6.781457-20.344371-20.344371v-20.344371c0-13.562914-6.781457-20.344371-20.34437-20.344371l-27.125828-13.562914c0-6.781457-13.562914-6.781457-13.562914 6.781457l-13.562914 13.562914c-6.781457 6.781457-20.344371 6.781457-27.125828 0l-20.344371-27.125828c-6.781457-6.781457-6.781457-20.344371 0-27.125827l13.562914-13.562914c6.781457-6.781457 6.781457-20.344371 6.781457-27.125828l-13.562914-27.125828c-6.781457-6.781457-13.562914-20.344371-20.344371-20.344371h-20.34437c-13.562914 0-20.344371-6.781457-20.344371-20.344371v-33.907284c0-13.562914 6.781457-20.344371 20.344371-20.344371h20.34437c13.562914 0 20.344371-6.781457 20.344371-20.344371l13.562914-27.125828c6.781457-6.781457 6.781457-20.344371-6.781457-27.125828l-13.562914-6.781457c-6.781457-6.781457-6.781457-20.344371 0-27.125828l27.125828-27.125827c6.781457-6.781457 20.344371-6.781457 27.125828 0l13.562914 13.562914c6.781457 6.781457 20.344371 6.781457 27.125828 6.781456l27.125827-13.562913c6.781457-6.781457 20.344371-13.562914 20.344371-20.344371v-20.344371c0-13.562914 6.781457-20.344371 20.344371-20.344371h33.907285c13.562914 0 20.344371 6.781457 20.344371 20.344371v20.344371c0 13.562914 6.781457 20.344371 20.344371 20.344371l27.125828 13.562913c6.781457 6.781457 20.344371 6.781457 27.125827-6.781456l13.562914-13.562914c6.781457-6.781457 20.344371-6.781457 27.125828 0l27.125828 27.125827c6.781457 6.781457 6.781457 20.344371 0 27.125828l-27.125828 20.344371c-6.781457 6.781457-6.781457 20.344371-6.781457 27.125828l13.562914 27.125828c6.781457 6.781457 13.562914 20.344371 20.344371 20.344371h20.344371c13.562914 0 20.344371 6.781457 20.344371 20.34437v27.125828c-13.562914 6.781457-20.344371 13.562914-27.125828 13.562914z m-210.225166-115.284768c-47.470199 0-88.15894 40.688742-88.15894 88.15894 0 47.470199 40.688742 88.15894 88.15894 88.158941 47.470199 0 88.15894-40.688742 88.158941-88.158941 0-54.251656-40.688742-88.15894-88.158941-88.15894z"  horiz-adv-x="1092" />

    
    <glyph glyph-name="zhuanyeyulan" unicode="&#59008;" d="M643.2 896H144C99.2 896 60.8 857.6 60.8 812.8v-864c0-38.4 38.4-76.8 83.2-76.8h736c44.8 0 83.2 38.4 83.2 83.2V563.2c0 19.2-6.4 38.4-19.2 57.6L700.8 870.4C688 889.6 668.8 896 643.2 896zM892.8 576h-192V768c25.6-19.2 172.8-172.8 192-192z m-102.4-518.4c6.4-6.4 6.4-19.2 0-25.6l-25.6-19.2c-6.4-6.4-19.2-6.4-25.6 0L560 192c-38.4-25.6-76.8-38.4-121.6-38.4-121.6 0-224 102.4-224 224S316.8 601.6 438.4 601.6s224-102.4 224-224c0-51.2-19.2-102.4-51.2-140.8l179.2-179.2z m-358.4 172.8c-83.2 0-147.2 64-147.2 147.2 0 83.2 64 147.2 147.2 147.2 83.2 0 147.2-64 147.2-147.2 0-76.8-64-147.2-147.2-147.2z m0 0"  horiz-adv-x="1024" />

    
    <glyph glyph-name="shenqingchehui" unicode="&#59006;" d="M878.178743 896H146.750171C73.607314 896-6.849829 815.542857 0.464457 749.714286v-731.428572c0-87.771429 65.828571-146.285714 146.285714-146.285714h256c7.314286 0 21.942857 0 21.942858 7.314286 7.314286 7.314286 14.628571 14.628571 14.628571 29.257143s-51.2 36.571429-73.142857 36.571428H146.750171c-21.942857 0-73.142857 51.2-73.142857 73.142857V749.714286c7.314286 14.628571 58.514286 73.142857 73.142857 73.142857h731.428572c21.942857 0 73.142857-51.2 73.142857-73.142857v-292.571429c0-7.314286 7.314286-51.2 14.628571-58.514286 7.314286-7.314286 14.628571-14.628571 21.942858-14.628571 21.942857 0 36.571429 51.2 36.571428 73.142857V749.714286c-7.314286 80.457143-80.457143 146.285714-146.285714 146.285714z m0-658.285714H402.750171l138.971429 131.657143c14.628571 14.628571 14.628571 29.257143 0 43.885714-14.628571 14.628571-29.257143 14.628571-51.2 0L285.7216 223.085714c-7.314286-7.314286-7.314286-14.628571-7.314286-21.942857 0-7.314286 7.314286-14.628571 14.628572-21.942857l204.8-190.171429c14.628571-14.628571 36.571429-14.628571 51.2 0 14.628571 14.628571 14.628571 29.257143 0 43.885715l-146.285715 131.657143H878.178743c43.885714 0 73.142857-65.828571 73.142857-73.142858v-73.142857c0-21.942857-51.2-73.142857-73.142857-73.142857H658.750171c-21.942857 0-80.457143-21.942857-80.457142-36.571428 0-21.942857 58.514286-36.571429 80.457142-36.571429h219.428572c73.142857 0 146.285714 65.828571 146.285714 146.285714v73.142857c0 58.514286-73.142857 146.285714-146.285714 146.285715z"  horiz-adv-x="1024" />

    
    <glyph glyph-name="zhibiaofenxi" unicode="&#59007;" d="M224 192h576c19.2 0 32-12.8 32-32s-12.8-32-32-32h-576c-19.2 0-32 12.8-32 32s12.8 32 32 32zM224 64h256c19.2 0 32-12.8 32-32s-12.8-32-32-32h-256c-19.2 0-32 12.8-32 32s12.8 32 32 32zM864-128H166.4C108.8-128 64-83.2 64-25.6V793.6C64 851.2 108.8 896 166.4 896h697.6c51.2 0 96-44.8 96-102.4v-819.2c0-57.6-44.8-102.4-96-102.4zM332.8 832H166.4c-19.2 0-38.4-12.8-38.4-38.4v-819.2c0-25.6 25.6-38.4 44.8-38.4h684.8c19.2 0 32 19.2 32 38.4V793.6c6.4 19.2-6.4 38.4-25.6 38.4H332.8zM454.4 339.2L172.8 550.4l38.4 51.2 230.4-172.8 192 326.4 224-217.6-51.2-51.2-160 166.4z"  horiz-adv-x="1024" />

    
    <glyph glyph-name="shenpi1" unicode="&#58999;" d="M955.733333 554.666667h-68.266666v-68.266667H204.8v-68.266667h682.666667v-68.266666h68.266666V418.133333h68.266667V486.4h-68.266667V554.666667z m136.533334 341.333333H136.533333C61.44 896 0 834.56 0 759.466667v-750.933334c0-75.093333 61.44-136.533333 136.533333-136.533333h955.733334c75.093333 0 136.533333 61.44 136.533333 136.533333V759.466667c0 75.093333-61.44 136.533333-136.533333 136.533333z m68.266666-887.466667c0-40.96-27.306667-68.266667-68.266666-68.266666H136.533333c-40.96 0-68.266667 27.306667-68.266666 68.266666V622.933333c0 40.96 27.306667 68.266667 68.266666 68.266667h955.733334c40.96 0 68.266667-27.306667 68.266666-68.266667v-614.4zM341.333333 281.6H273.066667v-68.266667H204.8v-68.266666h68.266667v-68.266667h68.266666v68.266667h682.666667v68.266666H341.333333V281.6z"  horiz-adv-x="1228" />

    
    <glyph glyph-name="kecheng" unicode="&#59000;" d="M146.285714-54.857143c0-36.571429-36.571429-73.142857-73.142857-73.142857s-73.142857 29.257143-73.142857 65.828571V18.285714h146.285714v-73.142857zM0 603.428571h146.285714v-512H0V603.428571z m146.285714 73.142858H0c0 36.571429 36.571429 73.142857 73.142857 73.142857s73.142857-36.571429 73.142857-73.142857z m292.571429-731.428572c0-36.571429-36.571429-73.142857-73.142857-73.142857s-73.142857 36.571429-73.142857 73.142857v73.142857h146.285714v-73.142857z m0 146.285714H292.571429V676.571429h146.285714v-585.142858z m0 658.285715H292.571429V822.857143c0 36.571429 36.571429 73.142857 73.142857 73.142857s73.142857-36.571429 73.142857-73.142857v-73.142857z m292.571428-804.571429c0-36.571429-36.571429-73.142857-73.142857-73.142857s-73.142857 36.571429-73.142857 73.142857V676.571429c0 36.571429 36.571429 73.142857 73.142857 73.142857s73.142857-36.571429 73.142857-73.142857v-731.428572z m292.571429 0c0-36.571429-36.571429-73.142857-73.142857-73.142857s-73.142857 36.571429-73.142857 73.142857v73.142857h146.285714v-73.142857z m0 146.285714h-146.285714V384l146.285714 7.314286V91.428571z m0 365.714286h-146.285714V530.285714c0 36.571429 36.571429 73.142857 73.142857 73.142857s73.142857-36.571429 73.142857-73.142857v-73.142857z m0 0"  horiz-adv-x="1024" />

    
    <glyph glyph-name="shouye" unicode="&#59001;" d="M1003.924309 431.205674L553.654805 881.475177c-21.787234 21.787234-58.099291 21.787234-87.148936 0L16.236366 431.205674c-36.312057-36.312057-7.262411-101.673759 43.574468-101.673759H74.335656c29.049645 0 58.099291-29.049645 58.099291-58.099291v-341.333333c0-29.049645 29.049645-58.099291 58.099291-58.099291h305.021276c29.049645 0 58.099291 29.049645 58.099291 58.099291V169.758865c0 29.049645 29.049645 58.099291 58.099291 58.099291h79.886525c29.049645 0 58.099291-29.049645 58.099291-58.099291v-232.397163c0-29.049645 29.049645-58.099291 58.09929-58.099291h7.262412c29.049645 0 58.099291 29.049645 58.099291 58.099291V278.695035c0 29.049645 29.049645 58.099291 58.09929 58.099291h14.524823c65.361702 0 94.411348 58.099291 58.099291 94.411348z m0 0"  horiz-adv-x="1027" />

    
    <glyph glyph-name="zhuanyejianshe" unicode="&#59002;" d="M586.105263 141.473684c-60.631579-13.473684-121.263158-20.210526-195.368421-20.210526-215.578947 0-390.736842 67.368421-390.736842 148.210526v-175.157895c0-80.842105 181.894737-148.210526 397.473684-148.210526 80.842105 0 154.947368 13.473684 215.578948 26.947369-20.210526 40.421053-33.684211 80.842105-33.684211 128 6.736842 13.473684 6.736842 26.947368 6.736842 40.421052z m-188.631579 336.842105c215.578947 0 397.473684 67.368421 397.473684 148.210527V747.789474C794.947368 828.631579 613.052632 896 397.473684 896S0 828.631579 0 747.789474V626.526316c0-80.842105 181.894737-148.210526 397.473684-148.210527z m397.473684-107.789473V538.947368c0-80.842105-181.894737-148.210526-397.473684-148.210526S0 458.105263 0 538.947368v-175.157894c0-80.842105 181.894737-148.210526 397.473684-148.210527 80.842105 0 161.684211 13.473684 222.31579 26.947369 40.421053 60.631579 101.052632 107.789474 175.157894 128z m256-229.052632h-20.210526c-13.473684 0-20.210526 6.736842-20.210526 20.210527l-13.473684 26.947368c-6.736842 6.736842-6.736842 20.210526 6.736842 26.947368l6.736842 13.473685c6.736842 6.736842 6.736842 20.210526 0 26.947368l-26.947369 26.947368c-6.736842 6.736842-20.210526 6.736842-26.947368 0l-13.473684-13.473684c-6.736842-6.736842-20.210526-6.736842-26.947369-6.736842l-26.947368 13.473684S875.789474 289.684211 875.789474 296.421053v20.210526c0 13.473684-6.736842 20.210526-20.210527 20.210526h-33.68421c-13.473684 0-20.210526-6.736842-20.210526-20.210526v-20.210526c0-13.473684-6.736842-20.210526-20.210527-20.210527l-26.947368-13.473684c0-6.736842-13.473684-6.736842-13.473684 0l-13.473685 13.473684c-6.736842 6.736842-20.210526 6.736842-26.947368 0l-20.210526-26.947368c-6.736842-6.736842-6.736842-20.210526 0-26.947369l13.473684-13.473684c6.736842-6.736842 6.736842-20.210526 6.736842-26.947368l-13.473684-26.947369c-6.736842-6.736842-13.473684-20.210526-20.210527-20.210526h-20.210526c-13.473684 0-20.210526-6.736842-20.210526-20.210526v-33.684211c0-13.473684 6.736842-20.210526 20.210526-20.210526h20.210526c13.473684 0 20.210526-6.736842 20.210527-20.210526l13.473684-26.947369c6.736842-6.736842 6.736842-20.210526-6.736842-26.947368l-13.473684-6.736842c-6.736842-6.736842-6.736842-20.210526 0-26.947369l26.947368-26.947368c6.736842-6.736842 20.210526-6.736842 26.947368 0l13.473685 13.473684c6.736842 6.736842 20.210526 6.736842 26.947368 6.736842l26.947369-13.473684c6.736842-6.736842 20.210526-13.473684 20.210526-20.210526v-20.210527c0-13.473684 6.736842-20.210526 20.210526-20.210526h33.684211c13.473684 0 20.210526 6.736842 20.210526 20.210526v20.210527c0 13.473684 6.736842 20.210526 20.210526 20.210526l26.947369 13.473684c6.736842 6.736842 20.210526 6.736842 26.947368-6.736842l13.473684-13.473684c6.736842-6.736842 20.210526-6.736842 26.947369 0l26.947368 26.947368c6.736842 6.736842 6.736842 20.210526 0 26.947369l-26.947368 26.947368c-6.736842 6.736842-6.736842 20.210526-6.736842 26.947369l13.473684 26.947368c6.736842 6.736842 13.473684 20.210526 20.210526 20.210526h20.210527c13.473684 0 20.210526 6.736842 20.210526 20.210527v26.947368c-13.473684 6.736842-20.210526 13.473684-26.947369 13.473684zM842.105263 20.210526c-47.157895 0-87.578947 40.421053-87.578947 87.578948 0 47.157895 40.421053 87.578947 87.578947 87.578947 47.157895 0 87.578947-40.421053 87.578948-87.578947 0-47.157895-40.421053-87.578947-87.578948-87.578948z"  horiz-adv-x="1092" />

    
    <glyph glyph-name="zhuanye1" unicode="&#59003;" d="M943.542857 896H204.8C160.914286 896 109.714286 859.428571 109.714286 822.857143h731.428571c29.257143 0 73.142857-51.2 73.142857-73.142857v-702.171429c36.571429 0 73.142857 29.257143 73.142857 65.828572V852.114286c0 21.942857-21.942857 43.885714-43.885714 43.885714zM768 749.714286H109.714286c-43.885714 0-73.142857-36.571429-73.142857-73.142857v-731.428572c0-29.257143 51.2-73.142857 73.142857-73.142857h438.857143l292.571428 219.428571V676.571429c0 43.885714-73.142857 73.142857-73.142857 73.142857z m-512-658.285715H182.857143C102.4 91.428571 102.4 237.714286 182.857143 237.714286h73.142857c65.828571 0 87.771429-146.285714 0-146.285715z m0 365.714286H182.857143C102.4 457.142857 102.4 603.428571 182.857143 603.428571h73.142857c65.828571 0 87.771429-146.285714 0-146.285714z m219.428571 146.285714h146.285715c65.828571 0 87.771429-146.285714 0-146.285714H475.428571C394.971429 457.142857 394.971429 603.428571 475.428571 603.428571z m146.285715-512H475.428571c-73.142857 0-73.142857 146.285714 0 146.285715h146.285715c65.828571 0 95.085714-146.285714 0-146.285715z"  horiz-adv-x="1024" />

    
    <glyph glyph-name="guanli" unicode="&#59004;" d="M984.177778 463.644444h-45.511111c-22.755556 0-45.511111 17.066667-51.2 39.822223l-28.444445 68.266666c-11.377778 11.377778-5.688889 39.822222 11.377778 56.888889l34.133333 34.133334c17.066667 17.066667 17.066667 39.822222 0 56.888888l-56.888889 56.888889c-17.066667 17.066667-39.822222 17.066667-56.888888 0l-34.133334-34.133333c-17.066667-17.066667-45.511111-22.755556-62.577778-11.377778L625.777778 759.466667c-22.755556 5.688889-39.822222 28.444444-39.822222 51.2V856.177778c0 22.755556-17.066667 39.822222-39.822223 39.822222H472.177778c-22.755556 0-39.822222-17.066667-39.822222-39.822222v-45.511111c0-22.755556-17.066667-45.511111-39.822223-51.2l-62.577777-28.444445c-17.066667-11.377778-45.511111-5.688889-62.577778 11.377778l-34.133334 34.133333c-17.066667 17.066667-39.822222 17.066667-56.888888 0l-56.888889-56.888889c-17.066667-17.066667-17.066667-39.822222 0-56.888888l34.133333-34.133334c17.066667-17.066667 22.755556-45.511111 11.377778-62.577778L136.533333 497.777778c-5.688889-17.066667-28.444444-34.133333-51.2-34.133334H39.822222c-22.755556 0-39.822222-17.066667-39.822222-39.822222v-79.644444c0-22.755556 17.066667-39.822222 39.822222-39.822222h45.511111c22.755556 0 45.511111-17.066667 51.2-39.822223l28.444445-68.266666c11.377778-11.377778 5.688889-39.822222-11.377778-56.888889l-34.133333-34.133334c-17.066667-17.066667-17.066667-39.822222 0-56.888888l56.888889-56.888889c17.066667-17.066667 39.822222-17.066667 56.888888 0l34.133334 34.133333c17.066667 17.066667 45.511111 22.755556 62.577778 11.377778l68.266666-28.444445c22.755556-5.688889 39.822222-28.444444 39.822222-51.2v-45.511111c0-22.755556 17.066667-39.822222 39.822223-39.822222h79.644444c22.755556 0 39.822222 17.066667 39.822222 39.822222v45.511111c0 22.755556 17.066667 45.511111 39.822223 51.2l68.266666 28.444445c17.066667 11.377778 45.511111 5.688889 62.577778-11.377778l34.133333-34.133333c17.066667-17.066667 39.822222-17.066667 56.888889 0l56.888889 56.888889c17.066667 17.066667 17.066667 39.822222 0 56.888888l-34.133333 34.133334c-17.066667 17.066667-17.066667 45.511111-11.377778 62.577778l28.444444 68.266666c5.688889 22.755556 28.444444 39.822222 51.2 39.822222h45.511112c22.755556 0 39.822222 17.066667 39.822222 39.822223V423.822222c-11.377778 22.755556-28.444444 39.822222-51.2 39.822222M711.111111 384c0-108.088889-91.022222-199.111111-199.111111-199.111111S312.888889 270.222222 312.888889 384c0 108.088889 91.022222 199.111111 199.111111 199.111111s199.111111-91.022222 199.111111-199.111111"  horiz-adv-x="1035" />

    
    <glyph glyph-name="zhuanyerenzheng" unicode="&#59005;" d="M804.571429 822.857143c0 43.885714-73.142857 73.142857-73.142858 73.142857H73.142857C29.257143 896 0 859.428571 0 822.857143v-731.428572c0-29.257143 51.2-73.142857 73.142857-73.142857h365.714286s80.457143 329.142857 365.714286 438.857143V822.857143zM219.428571 237.714286H146.285714C65.828571 237.714286 65.828571 384 146.285714 384h73.142857c65.828571 0 87.771429-146.285714 0-146.285714z m0 365.714285H146.285714C65.828571 603.428571 65.828571 749.714286 146.285714 749.714286h73.142857c65.828571 0 87.771429-146.285714 0-146.285715z m365.714286 0H438.857143C358.4 603.428571 358.4 749.714286 438.857143 749.714286h146.285714c65.828571 0 87.771429-146.285714 0-146.285715z m577.828572-424.228571l-65.828572 14.628571c0 7.314286-7.314286 29.257143-21.942857 36.571429 0 7.314286 7.314286 14.628571 21.942857 21.942857 7.314286 7.314286 14.628571 14.628571 14.628572 29.257143v14.628571c-7.314286 7.314286-29.257143 36.571429-51.2 58.514286h-21.942858l-43.885714-43.885714c-7.314286 7.314286-14.628571 7.314286-29.257143 7.314286l-7.314285 58.514285V384H877.714286c-7.314286 0-7.314286 0-7.314286-7.314286s-7.314286-36.571429-7.314286-58.514285c-7.314286 0-21.942857-7.314286-29.257143-7.314286l-43.885714 36.571428h-7.314286c-7.314286 0-14.628571-7.314286-36.571428-21.942857l-43.885714-43.885714v-14.628571c21.942857-14.628571 29.257143-36.571429 36.571428-43.885715-7.314286-7.314286-7.314286-14.628571-7.314286-36.571428l-65.828571-7.314286H658.285714v-95.085714h7.314286l65.828571-7.314286c0-7.314286 7.314286-21.942857 21.942858-36.571429 0-7.314286-7.314286-14.628571-21.942858-29.257142-7.314286-7.314286-21.942857-14.628571-21.942857-21.942858v-14.628571c7.314286-7.314286 29.257143-36.571429 58.514286-58.514286h21.942857l43.885714 36.571429c7.314286-7.314286 21.942857-7.314286 29.257143-7.314286l7.314286-58.514286v-14.628571H950.857143c7.314286 0 7.314286 0 7.314286 7.314286s7.314286 36.571429 7.314285 58.514285c7.314286 0 21.942857 7.314286 29.257143 7.314286l43.885714-36.571428h7.314286c7.314286 0 14.628571 7.314286 36.571429 29.257142l36.571428 36.571429v14.628571c-21.942857 14.628571-29.257143 36.571429-36.571428 43.885715 7.314286 7.314286 7.314286 14.628571 7.314285 36.571428l65.828572 7.314286h14.628571l-7.314285 102.4c0 7.314286 0 0 0 0z m-190.171429-102.4c-21.942857-14.628571-36.571429-21.942857-65.828571-21.942857s-43.885714 7.314286-65.828572 21.942857c-21.942857 14.628571-29.257143 36.571429-29.257143 58.514286 0 21.942857 7.314286 43.885714 29.257143 58.514285 21.942857 14.628571 36.571429 29.257143 65.828572 29.257143s43.885714-7.314286 65.828571-29.257143c21.942857-14.628571 29.257143-36.571429 29.257143-58.514285-7.314286-21.942857-14.628571-43.885714-29.257143-58.514286z"  horiz-adv-x="1170" />

    
    <glyph glyph-name="caidan2" unicode="&#58889;" d="M128 512C57.6 512 0 454.4 0 384s57.6-128 128-128 128 57.6 128 128-57.6 128-128 128z m384 0c-70.4 0-128-57.6-128-128s57.6-128 128-128 128 57.6 128 128-57.6 128-128 128z m384 0c-70.4 0-128-57.6-128-128s57.6-128 128-128 128 57.6 128 128-57.6 128-128 128z"  horiz-adv-x="1024" />

    
    <glyph glyph-name="quxiao" unicode="&#58890;" d="M875.432137 747.432137C677.341654 945.522621 351.450858 945.522621 153.360374 747.432137c-198.090484-198.090484-198.090484-523.981279 0-722.071763 198.090484-198.090484 523.981279-198.090484 722.071763 0 198.090484 198.090484 198.090484 517.591264 0 722.071763z m-153.360374-498.421217c19.170047-19.170047 19.170047-51.120125 0-70.290171-19.170047-19.170047-51.120125-19.170047-70.290172 0L511.201248 312.911076l-146.970359-146.970358c-19.170047-19.170047-51.120125-19.170047-70.290171 0-19.170047 19.170047-19.170047 51.120125 0 70.290171L440.911076 383.201248 287.550702 536.561622c-19.170047 19.170047-19.170047 51.120125 0 70.290172 19.170047 19.170047 51.120125 19.170047 70.290172 0L511.201248 459.881435l140.580343 140.580343c19.170047 19.170047 51.120125 19.170047 70.290172 0 19.170047-19.170047 19.170047-51.120125 0-70.290171L587.881435 383.201248l134.190328-134.190328z"  horiz-adv-x="1025" />

    
    <glyph glyph-name="daochu" unicode="&#58940;" d="M832-64H192c-76.8 0-128 51.2-128 128V704c0 76.8 51.2 128 128 128h320v-64H192c-38.4 0-64-25.6-64-64v-640c0-38.4 25.6-64 64-64h640c38.4 0 64 25.6 64 64V384h64v-320c0-76.8-70.4-128-128-128z m64 640V704l-441.6-454.4c-12.8-12.8-38.4-12.8-51.2 0-12.8 12.8-32 57.6-19.2 70.4l448 448h-128c-64 0-76.8 64 0 64h217.6c19.2 0 38.4-12.8 38.4-38.4V576c0-64-57.6-76.8-64 0z"  horiz-adv-x="1024" />

    
    <glyph glyph-name="daoru" unicode="&#58941;" d="M832-64H192c-76.8 0-128 51.2-128 128V704c0 76.8 51.2 128 128 128h320v-64H192c-38.4 0-64-25.6-64-64v-640c0-38.4 25.6-64 64-64h640c38.4 0 64 25.6 64 64V384h64v-320c0-76.8-70.4-128-128-128zM384 441.6V320l435.2 441.6c12.8 6.4 38.4 6.4 51.2-6.4 12.8-12.8 32-57.6 19.2-70.4L448 256h128c64 0 76.8-64 0-64H358.4c-19.2 0-38.4 12.8-38.4 32V435.2c0 70.4 57.6 83.2 64 6.4z"  horiz-adv-x="1024" />

    
    <glyph glyph-name="gongju" unicode="&#58942;" d="M369.777778 810.666667h-284.444445c-34.133333 0-56.888889-22.755556-56.888889-56.888889v-284.444445c0-34.133333 22.755556-56.888889 56.888889-56.888889h284.444445c34.133333 0 56.888889 22.755556 56.888889 56.888889v284.444445c0 28.444444-28.444444 56.888889-56.888889 56.888889z m608.711111-159.288889L779.377778 850.488889c-22.755556 22.755556-56.888889 22.755556-79.644445 0L494.933333 651.377778c-22.755556-22.755556-22.755556-56.888889 0-79.644445l199.111111-199.111111c22.755556-22.755556 56.888889-22.755556 79.644445 0l199.111111 199.111111c28.444444 22.755556 28.444444 56.888889 5.688889 79.644445zM369.777778 298.666667h-284.444445c-34.133333 0-56.888889-22.755556-56.888889-56.888889v-284.444445c0-34.133333 22.755556-56.888889 56.888889-56.888889h284.444445c34.133333 0 56.888889 22.755556 56.888889 56.888889v284.444445c0 28.444444-28.444444 56.888889-56.888889 56.888889z m512 0h-284.444445c-34.133333 0-56.888889-22.755556-56.888889-56.888889v-284.444445c0-34.133333 22.755556-56.888889 56.888889-56.888889h284.444445c34.133333 0 56.888889 22.755556 56.888889 56.888889v284.444445c0 28.444444-28.444444 56.888889-56.888889 56.888889z"  horiz-adv-x="1024" />

    
    <glyph glyph-name="chaungjian" unicode="&#58943;" d="M422.4-64h-256c-19.2 0-64 44.8-64 64V512H384c19.2 0 38.4 19.2 38.4 38.4V832h384c51.2 0 64-44.8 64-64v-256c0-19.2 6.4-51.2 25.6-51.2 19.2 0 38.4 32 38.4 51.2V819.2C928 864 896 896 851.2 896H422.4l-384-384v-563.2c0-44.8 32-76.8 76.8-76.8h307.2c70.4 0 70.4 64 0 64z m-64 896l-128-128 128 128z m0-64v-192h-192l192 192z m576-640h-128v128c0 44.8-64 44.8-64 0v-128h-128c-64-6.4-44.8-64 0-64h128v-128c0-70.4 64-70.4 64 0v128h128c70.4 0 70.4 64 0 64zM518.4 384h-256c-19.2 0-32-12.8-32-32s12.8-32 32-32h256c19.2 0 32 12.8 32 32S531.2 384 518.4 384z m-128-256c19.2 0 32 12.8 32 32s-12.8 32-32 32h-128c-19.2 0-32-12.8-32-32s12.8-32 32-32h128z"  horiz-adv-x="1024" />

    
    <glyph glyph-name="chakan" unicode="&#58944;" d="M659.2 473.6c0-32-25.6-57.6-57.6-57.6s-57.6 25.6-57.6 57.6 25.6 57.6 57.6 57.6h12.8c-25.6 19.2-64 32-102.4 32-102.4 0-179.2-83.2-179.2-179.2 0-96 83.2-179.2 179.2-179.2 102.4 0 179.2 76.8 179.2 179.2 0 38.4-12.8 70.4-32 102.4v-12.8z m358.4-70.4C928 550.4 729.6 768 512 768 294.4 768 96 550.4 12.8 403.2L0 384l12.8-19.2C96 217.6 294.4 0 512 0c217.6 0 416 217.6 505.6 364.8L1024 384l-6.4 19.2zM512 70.4c-179.2 0-352 192-428.8 313.6C160 505.6 332.8 697.6 512 697.6c179.2 0 352-192 428.8-313.6-76.8-121.6-249.6-313.6-428.8-313.6z m0 0"  horiz-adv-x="1024" />

    
    <glyph glyph-name="fuzhi" unicode="&#58945;" d="M768 0v-64H64V640h64c32 0 32 64 0 64H64c-25.6 0-64-38.4-64-64v-704c0-12.8 6.4-38.4 12.8-51.2 12.8-6.4 38.4-12.8 51.2-12.8h704c25.6 0 64 38.4 64 64v64c0 25.6-64 25.6-64 0z m192 896H256s-38.4-6.4-44.8-12.8C198.4 870.4 192 844.8 192 832v-704c0-25.6 38.4-64 64-64h704c25.6 0 64 38.4 64 64V832c0 25.6-38.4 64-64 64z m0-768H256V832h704v-704z m-384 128h64V448h192V512h-192V704H576v-192H384v-64h192v-192z"  horiz-adv-x="1024" />

    
    <glyph glyph-name="duibi" unicode="&#58946;" d="M960-38.4L512 371.2l-448-409.6V806.4l448-409.6 448 409.6v-844.8zM588.8 384l307.2-281.6V665.6L588.8 384zM128 665.6v-556.8L435.2 384 128 665.6zM480-64V768h64v-832"  horiz-adv-x="1024" />

    
    <glyph glyph-name="shouqi" unicode="&#58947;" d="M512 896C230.4 896 0 665.6 0 384s230.4-512 512-512 512 230.4 512 512-230.4 512-512 512z m236.8-467.2l-185.6-211.2c-6.4-6.4-6.4-6.4-12.8-6.4h-6.4c-25.6-12.8-51.2-6.4-70.4 12.8l-192 204.8c-19.2 25.6-38.4 51.2-12.8 70.4 25.6 25.6 64-25.6 89.6-51.2l160-192L704 473.6c25.6 25.6 38.4 38.4 44.8 38.4 12.8-12.8 19.2-25.6 19.2-38.4 0-19.2-6.4-32-19.2-44.8z"  horiz-adv-x="1024" />

    
    <glyph glyph-name="zhankai" unicode="&#58948;" d="M512 896C230.4 896 0 665.6 0 384s230.4-512 512-512 512 230.4 512 512-230.4 512-512 512z m236.8-672c-6.4 0-19.2 12.8-44.8 38.4L518.4 480l-160-192c-25.6-25.6-64-70.4-89.6-51.2-25.6 19.2-12.8 44.8 12.8 70.4l185.6 217.6c19.2 19.2 51.2 25.6 70.4 12.8h6.4c6.4 0 6.4-6.4 12.8-6.4L742.4 320c19.2-25.6 25.6-38.4 25.6-57.6 0-12.8-6.4-25.6-19.2-38.4z"  horiz-adv-x="1024" />

    
    <glyph glyph-name="tianjia1" unicode="&#58949;" d="M512 896C230.4 896 0 665.6 0 384s230.4-512 512-512 512 230.4 512 512-230.4 512-512 512z m320-576H576v-256H448V320H192V448h256V704h128v-256h256v-128z"  horiz-adv-x="1024" />

    
    <glyph glyph-name="duohangwenben" unicode="&#58950;" d="M896 736v-256H128v256h768m0 64H128c-32 0-64-32-64-64v-256c0-38.4 32-64 64-64h768c38.4 0 64 25.6 64 64v256c0 32-25.6 64-64 64zM896 288v-256H128v256h768m0 64H128c-32 0-64-25.6-64-64v-256c0-38.4 32-64 64-64h768c38.4 0 64 25.6 64 64v256c0 38.4-25.6 64-64 64zM192 704h192v-192H192zM192 256h192v-192H192z"  horiz-adv-x="1024" />

    
    <glyph glyph-name="xialakuang1" unicode="&#58951;" d="M896 736v-256H128v256h768m0 64H128c-32 0-64-32-64-64v-256c0-38.4 32-64 64-64h768c38.4 0 64 25.6 64 64v256c0 32-25.6 64-64 64zM896 288v-256H128v256h768m0 64H128c-32 0-64-25.6-64-64v-256c0-38.4 32-64 64-64h768c38.4 0 64 25.6 64 64v256c0 38.4-25.6 64-64 64zM320 537.6L185.6 678.4H454.4zM320 89.6l-134.4 140.8H454.4z"  horiz-adv-x="1024" />

    
    <glyph glyph-name="xiayi" unicode="&#58952;" d="M64-32h128v64H64v-64z m64 192H64v-64h64v64z m128 192H192v-64h64v64z m-128 0H64v-128h64v128z m128-384h64v64H256v-64z m-192 448h384v384H64v-384z m64 320h256v-256H128v256z m192-448h128v64H320v-64z m64-320h57.6l6.4 64H384v-64z m0 128h64v128H384v-128z m384 128v576h-64v-576H512l224-256 224 256h-192z"  horiz-adv-x="1024" />

    
    <glyph glyph-name="shangyi" unicode="&#58953;" d="M64-32h128v64H64v-64z m64 384H64v-128h64v128z m128 0H192v-64h64v64z m-128-192H64v-64h64v64z m128-192h64v64H256v-64z m512 576h192l-224 256-224-256h192v-576h64v576z m-704-128h384v384H64v-384z m64 320h256v-256H128v256z m256-768h57.6l6.4 64H384v-64z m-64 320h128v64H320v-64z m64-192h64v128H384v-128z"  horiz-adv-x="1024" />

    
    <glyph glyph-name="gerenzhongxin" unicode="&#58954;" d="M832 588.8c0 83.2-32 160-96 217.6C678.4 864 595.2 896 512 896 428.8 896 345.6 864 288 806.4 224 748.8 192 672 192 588.8c0-83.2 32-160 96-217.6 19.2-19.2 44.8-38.4 70.4-51.2-25.6 0-44.8 0-64-6.4-57.6-19.2-108.8-51.2-153.6-89.6-51.2-57.6-76.8-96-102.4-147.2-25.6-51.2-38.4-83.2-38.4-140.8v-64h57.6s6.4 44.8 6.4 64c0 185.6 166.4 332.8 377.6 320h64v25.6c83.2 0 166.4 32 224 89.6 70.4 57.6 102.4 134.4 102.4 217.6z m-320-428.8c0-19.2 12.8-32 32-32h448c19.2 0 32 12.8 32 32s-12.8 32-32 32h-448c-19.2 0-32-12.8-32-32z m480-96h-448c-19.2 0-32-12.8-32-32s12.8-32 32-32h448c19.2 0 32 12.8 32 32s-12.8 32-32 32z m0-128h-448c-19.2 0-32-12.8-32-32s12.8-32 32-32h448c19.2 0 32 12.8 32 32s-12.8 32-32 32z"  horiz-adv-x="1024" />

    
    <glyph glyph-name="fankui" unicode="&#58955;" d="M627.2 0c-19.2-32-32-64-32-102.4 0-12.8 12.8-25.6 25.6-25.6h6.4c38.4 0 70.4 12.8 96 32l172.8 185.6-102.4 89.6L627.2 0z m345.6 249.6l-25.6 25.6c-19.2 19.2-51.2 19.2-70.4 0l-32-32 102.4-89.6 25.6 25.6c25.6 19.2 25.6 51.2 0 70.4zM864 448V768c0 32-6.4 64-32 89.6-25.6 19.2-64 38.4-96 38.4h-576C121.6 896 89.6 876.8 64 857.6 44.8 832 32 800 32 768v-704c0-70.4 57.6-128 128-128h256c32 0 64 44.8 83.2 70.4L832 364.8c25.6 19.2 32 51.2 32 83.2z m-384-320h-320v64h320v-64z m128 256h-448V448h448v-64z m128 256h-576V704h576v-64z"  horiz-adv-x="1024" />

    
    <glyph glyph-name="xiugaimima" unicode="&#58956;" d="M819.2 448h-32V652.8c0 128-115.2 236.8-256 236.8s-256-102.4-256-236.8V448h-32C140.8 448 64 384 64 320v-320c0-57.6 96-108.8 179.2-121.6h576c51.2 0 140.8 70.4 140.8 121.6V320c0 57.6-89.6 128-140.8 128z m-288-435.2c-51.2 0-96 44.8-96 102.4 0 44.8 25.6 83.2 64 96v64c0 25.6 12.8 44.8 32 44.8s32-19.2 32-44.8v-64c38.4-12.8 64-51.2 64-96 0-57.6-44.8-102.4-96-102.4z m128 467.2c0-12.8 0-25.6-6.4-32H409.6c-6.4 12.8-6.4 25.6-6.4 32V716.8c0 57.6 44.8 83.2 128 83.2 44.8 0 128-25.6 128-83.2v-236.8z"  horiz-adv-x="1024" />

    
    <glyph glyph-name="shoucang" unicode="&#58957;" d="M789.504-128c-12.8 0-25.6 6.4-32 12.8l-243.2 128-243.2-128c-25.6-19.2-51.2-12.8-76.8 0-19.2 19.2-32 44.8-32 76.8l51.2 268.8-192 185.6C2.304 441.6-4.096 473.6 2.304 499.2c6.4 25.6 32 51.2 64 51.2l262.4 51.2L450.304 851.2c12.8 25.6 38.4 44.8 64 44.8s57.6-19.2 64-44.8l115.2-249.6 268.8-44.8c25.6-6.4 51.2-25.6 57.6-51.2 6.4-25.6 0-57.6-19.2-83.2l-192-185.6 51.2-268.8c6.4-32-6.4-57.6-32-76.8-6.4-12.8-19.2-19.2-38.4-19.2z m0 0"  horiz-adv-x="1026" />

    
    <glyph glyph-name="gongxiangshezhi1" unicode="&#58960;" d="M998.4 460.8c-12.8 12.8-32 25.6-57.6 19.2h-12.8c-12.8 0-25.6 6.4-32 19.2 0 32-12.8 51.2-25.6 76.8-6.4 12.8 0 25.6 6.4 38.4l12.8 6.4c32 32 32 76.8 0 108.8l-32 32c-12.8 12.8-32 19.2-57.6 19.2-19.2 0-38.4-6.4-57.6-19.2l-6.4-12.8c-6.4-12.8-25.6-12.8-38.4-6.4-19.2 12.8-38.4 25.6-64 32-12.8 6.4-25.6 19.2-25.6 32v12.8C608 864 576 896 531.2 896h-44.8C448 896 409.6 864 409.6 819.2v-12.8c0-12.8-6.4-25.6-19.2-32-25.6-6.4-44.8-19.2-70.4-32-12.8-6.4-25.6 0-38.4 6.4l-6.4 12.8c-32 25.6-76.8 25.6-108.8 0l-32-32c-32-32-32-76.8 0-108.8l12.8-6.4c6.4-12.8 12.8-25.6 6.4-38.4-12.8-25.6-25.6-44.8-32-70.4-6.4-12.8-19.2-25.6-32-25.6h-12.8C32 480 0 448 0 403.2v-44.8c0-38.4 32-70.4 76.8-70.4h12.8c12.8 0 25.6-6.4 32-19.2 6.4-32 19.2-51.2 32-76.8 6.4-12.8 0-25.6-6.4-38.4l-12.8-6.4c-32-32-32-76.8 0-108.8l32-32c32-25.6 76.8-25.6 108.8 0l6.4 12.8c12.8 12.8 25.6 12.8 38.4 6.4 25.6-12.8 44.8-19.2 70.4-32 12.8-6.4 19.2-19.2 19.2-32v-12.8c6.4-44.8 38.4-76.8 83.2-76.8h44.8c44.8 0 76.8 32 76.8 76.8v12.8c0 12.8 6.4 25.6 19.2 32 25.6 6.4 51.2 19.2 70.4 32 12.8 6.4 25.6 0 38.4-6.4l6.4-12.8c12.8-12.8 32-19.2 57.6-19.2 19.2 0 38.4 6.4 57.6 19.2l32 32c12.8 12.8 25.6 32 25.6 57.6 0 19.2-6.4 38.4-19.2 57.6l-12.8 6.4c-12.8 6.4-12.8 25.6-6.4 38.4 12.8 25.6 19.2 44.8 32 70.4 6.4 12.8 19.2 19.2 32 19.2h12.8c32 0 64 32 64 76.8v38.4c0 25.6-6.4 44.8-25.6 57.6zM556.8 300.8c19.2 12.8 38.4 25.6 57.6 25.6 44.8 0 83.2-38.4 83.2-83.2 0-44.8-38.4-83.2-83.2-83.2s-83.2 38.4-83.2 83.2c0 6.4 0 12.8 6.4 19.2L396.8 345.6c-12.8-12.8-32-19.2-51.2-19.2-44.8 0-83.2 38.4-83.2 83.2s38.4 83.2 83.2 83.2c25.6 0 51.2-12.8 64-32l128 51.2v6.4c0 38.4 25.6 76.8 70.4 83.2 38.4 6.4 76.8-19.2 89.6-57.6 12.8-38.4-6.4-83.2-38.4-102.4-38.4-19.2-83.2-6.4-108.8 25.6l-128-51.2v-6.4c0-6.4 0-12.8-6.4-19.2l140.8-89.6z"  horiz-adv-x="1024" />

    
    <glyph glyph-name="wodexiaoxi" unicode="&#58958;" d="M640 0l-19.2-25.6c-19.2-19.2-19.2-12.8-32-19.2-25.6-12.8-51.2-19.2-76.8-19.2-25.6 0-51.2 6.4-76.8 25.6-19.2 12.8-51.2 38.4-51.2 38.4M512 896c-57.6 0-102.4-38.4-121.6-83.2C236.8 761.6 128 620.8 128 448v-256l-64-89.6c-25.6-44.8 0-102.4 51.2-102.4h211.2c25.6-76.8 96-128 179.2-128s153.6 51.2 179.2 128H896c51.2 0 83.2 57.6 51.2 102.4L896 192V448c0 172.8-108.8 313.6-262.4 364.8C614.4 857.6 569.6 896 512 896z"  horiz-adv-x="1024" />

    
    <glyph glyph-name="shanchu1" unicode="&#58927;" d="M512 896C226.742857 896 0 669.257143 0 384s226.742857-512 512-512 512 226.742857 512 512-226.742857 512-512 512z m292.571429-585.142857H219.428571V457.142857h585.142858v-146.285714z"  horiz-adv-x="1024" />

    
    <glyph glyph-name="tupian" unicode="&#58959;" d="M0 597.333333v-465.066666C0 76.8 34.133333 42.666667 85.333333 42.666667h640c51.2 0 85.333333 34.133333 85.333334 85.333333V597.333333c0 51.2-34.133333 85.333333-85.333334 85.333334H85.333333C34.133333 682.666667 0 652.8 0 597.333333z m738.133333-409.6h-640c68.266667 102.4 196.266667 268.8 226.133334 268.8 29.866667 0 136.533333-136.533333 183.466666-183.466666 0 0 59.733333 81.066667 93.866667 81.066666 29.866667 0 136.533333-166.4 136.533333-166.4z m-187.733333 354.133334c0 42.666667 34.133333 76.8 76.8 76.8s76.8-34.133333 76.8-76.8-34.133333-76.8-76.8-76.8-76.8 34.133333-76.8 76.8zM469.333333 725.333333L268.8 789.333333C230.4 793.6 221.866667 755.2 213.333333 725.333333h256z m499.2-68.266666L853.333333 682.666667v-42.666667l21.333334-537.6c0-25.6 0-55.466667-21.333334-76.8s-51.2-21.333333-76.8-21.333333L725.333333 0l115.2-17.066667c51.2-8.533333 64-4.266667 72.533334 51.2l106.666666 550.4c8.533333 51.2 4.266667 64-51.2 72.533334z m0 0"  horiz-adv-x="1024" />

    
    <glyph glyph-name="gongzuoliu" unicode="&#58961;" d="M848.457143 449.828571H804.571429c-21.942857 0-43.885714 21.942857-43.885715 43.885715 0 29.257143 21.942857 43.885714 43.885715 43.885714h43.885714c51.2 0 87.771429 43.885714 87.771428 95.085714 0 51.2-36.571429 95.085714-87.771428 95.085715H804.571429c-21.942857 0-43.885714 21.942857-43.885715 43.885714-7.314286 29.257143 14.628571 51.2 43.885715 51.2h43.885714C943.542857 822.857143 1024 742.4 1024 640s-80.457143-190.171429-175.542857-190.171429zM687.542857-128H336.457143c-29.257143 0-43.885714 14.628571-43.885714 43.885714v197.485715c0 29.257143 14.628571 51.2 43.885714 51.2h358.4c21.942857 0 43.885714-21.942857 43.885714-43.885715v-204.8c-7.314286-21.942857-21.942857-43.885714-51.2-43.885714z m0 365.714286H336.457143c-29.257143 0-43.885714 21.942857-43.885714 43.885714V486.4c0 29.257143 14.628571 43.885714 43.885714 43.885714h358.4c21.942857 0 36.571429-21.942857 36.571428-43.885714v-197.485714c0-29.257143-14.628571-51.2-43.885714-51.2z m0 365.714285H336.457143c-29.257143 0-43.885714 21.942857-43.885714 43.885715V844.8c0 29.257143 14.628571 51.2 43.885714 51.2h358.4c21.942857 0 36.571429-21.942857 36.571428-43.885714v-197.485715c0-29.257143-14.628571-51.2-43.885714-51.2z m-512-490.057142H219.428571c21.942857 0 43.885714-21.942857 43.885715-43.885715 7.314286-29.257143-14.628571-51.2-43.885715-51.2h-43.885714C80.457143 18.285714 0 98.742857 0 208.457143 0 310.857143 80.457143 391.314286 175.542857 391.314286H219.428571c21.942857 0 43.885714-21.942857 43.885715-43.885715 0-29.257143-21.942857-43.885714-43.885715-43.885714h-43.885714c-51.2 0-87.771429-43.885714-87.771428-95.085714 0-51.2 43.885714-95.085714 87.771428-95.085714z m0 0"  horiz-adv-x="1024" />

    
    <glyph glyph-name="jinyong1" unicode="&#58963;" d="M512 822.857143c241.371429 0 438.857143-197.485714 438.857143-438.857143s-197.485714-438.857143-438.857143-438.857143-438.857143 197.485714-438.857143 438.857143 197.485714 438.857143 438.857143 438.857143m0 73.142857C226.742857 896 0 669.257143 0 384s226.742857-512 512-512 512 226.742857 512 512-226.742857 512-512 512zM206.848 740.937143l656.822857-656.896-51.712-51.712-656.822857 656.822857z"  horiz-adv-x="1024" />

    
    <glyph glyph-name="jindu-" unicode="&#58964;" d="M146.285714 515.657143c-43.885714 0-73.142857-29.257143-73.142857-73.142857v-438.857143c0-43.885714 29.257143-73.142857 73.142857-73.142857s73.142857 29.257143 73.142857 73.142857v438.857143c0 36.571429-29.257143 73.142857-73.142857 73.142857zM512 874.057143c-43.885714 0-73.142857-29.257143-73.142857-73.142857v-804.571429c0-43.885714 29.257143-73.142857 73.142857-73.142857s73.142857 29.257143 73.142857 73.142857v804.571429c0 43.885714-29.257143 73.142857-73.142857 73.142857z m365.714286-212.114286c-43.885714 0-73.142857-29.257143-73.142857-73.142857v-585.142857c0-43.885714 29.257143-73.142857 73.142857-73.142857s73.142857 29.257143 73.142857 73.142857v585.142857c0 36.571429-29.257143 73.142857-73.142857 73.142857z"  horiz-adv-x="1024" />

    
    <glyph glyph-name="yulan" unicode="&#58965;" d="M659.2 473.6c0-32-25.6-57.6-57.6-57.6s-57.6 25.6-57.6 57.6 25.6 57.6 57.6 57.6h12.8c-25.6 19.2-64 32-102.4 32-102.4 0-179.2-83.2-179.2-179.2 0-96 83.2-179.2 179.2-179.2 102.4 0 179.2 76.8 179.2 179.2 0 38.4-12.8 70.4-32 102.4v-12.8z m358.4-70.4C928 550.4 729.6 768 512 768 294.4 768 96 550.4 12.8 403.2L0 384l12.8-19.2C96 217.6 294.4 0 512 0c217.6 0 416 217.6 505.6 364.8L1024 384l-6.4 19.2zM512 70.4c-179.2 0-352 192-428.8 313.6C160 505.6 332.8 697.6 512 697.6c179.2 0 352-192 428.8-313.6-76.8-121.6-249.6-313.6-428.8-313.6z m0 0"  horiz-adv-x="1024" />

    
    <glyph glyph-name="huanren-" unicode="&#58966;" d="M1013.344681 168.765228c-7.238176 0-36.190881 0 0 0H651.435866c-86.858115 0-79.619939-7.238176-79.619939 14.476352 0 7.238176 0 50.667234 7.238176 57.905411l130.287173 101.334468c14.476353 14.476353 72.381763 57.90541 86.858116 43.429058 14.476353-14.476353 14.476353-57.90541 0-72.381763l-72.381763-72.381763h289.527052v-72.381763zM506.67234 349.719635c-238.859818 0-434.290577-195.43076-434.290577-441.528754 0-21.714529-14.476353-36.190881-36.190882-36.190881-21.714529 7.238176-36.190881 21.714529-36.190881 43.429058 0 224.383465 152.001702 419.814225 354.670638 484.957811-108.572644 72.381763-152.001702 217.145289-94.096292 340.194286S456.005106 921.535562 579.054103 885.344681c130.287173-36.190881 209.907112-166.478055 188.192584-296.765228-14.476353-137.52535-130.287173-238.859818-260.574347-238.859818zM506.67234 827.43927c-50.667234 0-108.572644-21.714529-144.763525-57.90541-36.190881-43.429058-57.90541-94.096292-57.905411-144.763526 0-108.572644 94.096292-202.668936 202.668936-202.668936 108.572644 0 202.668936 94.096292 202.668936 202.668936C709.341276 733.342979 615.244985 827.43927 506.67234 827.43927zM579.054103 96.383465h354.670638c72.381763 0 79.619939 7.238176 79.61994-7.238176V96.383465v-72.381763l-137.52535-130.287173c-14.476353-14.476353-36.190881-14.476353-50.667234 0-14.476353 14.476353-43.429058 43.429058-28.952705 57.90541l72.381763 72.381763H579.054103v72.381763c7.238176 0 36.190881 0 0 0z"  horiz-adv-x="1024" />

    
    <glyph glyph-name="xiuding-" unicode="&#58967;" d="M1002.057143 720.457143L694.857143 405.942857 431.542857 252.342857l-51.2 51.2 153.6 256L841.142857 866.742857c21.942857 21.942857 65.828571 36.571429 102.4 0l58.514286-43.885714c36.571429-36.571429 21.942857-80.457143 0-102.4z m-541.257143-365.714286c-7.314286-14.628571 7.314286-29.257143 14.628571-21.942857l109.714286 73.142857-43.885714 58.514286-80.457143-109.714286z m336.457143 365.714286L592.457143 515.657143c7.314286-7.314286 21.942857-14.628571 51.2-51.2l204.8 204.8-51.2 51.2zM899.657143 822.857143l-51.2-51.2 51.2-51.2 51.2 51.2-51.2 51.2zM731.428571 91.428571H219.428571c-102.4-7.314286-80.457143 65.828571 0 73.142858h512c65.828571 0 65.828571-73.142857 0-73.142858zM292.571429 237.714286H146.285714V310.857143h146.285715v-73.142857z m0 219.428571v-73.142857H146.285714V457.142857h146.285715zM73.142857 749.714286v-731.428572c0-29.257143 43.885714-73.142857 73.142857-73.142857h658.285715c51.2 0 73.142857 43.885714 73.142857 73.142857V457.142857h73.142857v-438.857143c0-65.828571-73.142857-146.285714-146.285714-146.285714H146.285714c-73.142857 0-146.285714 73.142857-146.285714 146.285714V749.714286c0 73.142857 87.771429 146.285714 146.285714 146.285714h438.857143v-73.142857H146.285714c-29.257143-7.314286-73.142857-43.885714-73.142857-73.142857z"  horiz-adv-x="1024" />

    
    <glyph glyph-name="guanlizhongxin" unicode="&#58968;" d="M0 896v-936.228571h1024V896H0z m936.228571-855.771429H87.771429V654.628571h848.457142v-614.4zM585.142857 347.428571h102.4v73.142858h138.971429v58.514285H687.542857v65.828572H585.142857v-65.828572H197.485714v-58.514285H585.142857v-73.142858z m-175.542857-21.942857H307.2v-65.828571H197.485714v-58.514286h109.714286v-73.142857h102.4v58.514286h424.228571v58.514285H409.6V325.485714z m0 0"  horiz-adv-x="1024" />

    
    <glyph glyph-name="shenpiguanli-" unicode="&#58969;" d="M182.857143 713.142857H731.428571v-58.514286H182.857143v58.514286z m760.685714-592.457143c0 7.314286 7.314286 7.314286 7.314286 14.628572v14.628571l-7.314286 14.628572-7.314286 7.314285c-7.314286 7.314286-14.628571 7.314286-14.628571 0-7.314286 0-7.314286-7.314286-14.628571-14.628571-14.628571-14.628571-29.257143-29.257143-43.885715-36.571429-14.628571-14.628571-29.257143-21.942857-36.571428-36.571428-7.314286-7.314286-7.314286-7.314286-14.628572-7.314286s-7.314286 0-14.628571 7.314286l-7.314286 7.314285-14.628571 14.628572-14.628572 14.628571-7.314285 7.314286s-7.314286 7.314286-14.628572 7.314286-7.314286 0-14.628571-7.314286l-7.314286-7.314286-7.314286-7.314285-7.314285-7.314286-7.314286-7.314286c-7.314286-7.314286-7.314286-21.942857 7.314286-36.571428 0-7.314286 7.314286-7.314286 14.628571-14.628572l21.942857-21.942857 21.942857-21.942857 14.628572-14.628572c7.314286-7.314286 14.628571-7.314286 21.942857-7.314285 7.314286 0 14.628571 0 21.942857 7.314285l29.257143 29.257143 36.571428 36.571429 36.571429 36.571428c7.314286 14.628571 14.628571 21.942857 21.942857 29.257143z m-117.028571 182.857143c29.257143 0 51.2-7.314286 73.142857-14.628571 21.942857-7.314286 43.885714-21.942857 65.828571-43.885715 14.628571-14.628571 29.257143-36.571429 43.885715-65.828571 7.314286-21.942857 14.628571-51.2 14.628571-73.142857 0-29.257143-7.314286-51.2-14.628571-73.142857-7.314286-21.942857-21.942857-43.885714-43.885715-65.828572-14.628571-14.628571-36.571429-29.257143-65.828571-43.885714-21.942857-7.314286-51.2-14.628571-73.142857-14.628571-29.257143 0-51.2 7.314286-80.457143 14.628571-21.942857 7.314286-43.885714 21.942857-65.828572 43.885714-14.628571 14.628571-29.257143 36.571429-43.885714 65.828572-7.314286 21.942857-14.628571 51.2-14.628571 73.142857 0 29.257143 7.314286 51.2 14.628571 73.142857 7.314286 21.942857 21.942857 43.885714 43.885714 65.828571 14.628571 14.628571 36.571429 29.257143 65.828572 43.885715 21.942857 7.314286 51.2 14.628571 80.457143 14.628571zM182.857143 588.8H731.428571V530.285714H182.857143v58.514286z m-58.514286 182.857143h672.914286v-307.2H124.342857V771.657143zM0 32.914286c0-29.257143 29.257143-58.514286 58.514286-58.514286h563.2c-21.942857 43.885714-36.571429 87.771429-36.571429 131.657143C585.142857 237.714286 694.857143 347.428571 826.514286 347.428571c36.571429 0 65.828571-7.314286 95.085714-21.942857V464.457143h-58.514286V896H58.514286v-431.542857H0v-431.542857z m0 0"  horiz-adv-x="1024" />

    
    <glyph glyph-name="jinyong-1" unicode="&#58970;" d="M775.314286 449.828571c14.628571 0 21.942857-7.314286 21.942857-21.942857v-475.428571c0-14.628571-7.314286-21.942857-21.942857-21.942857H270.628571c-14.628571 0-21.942857 7.314286-21.942857 21.942857V427.885714c0 14.628571 7.314286 21.942857 21.942857 21.942857h504.685715m0 65.828572H270.628571c-43.885714 0-80.457143-36.571429-80.457142-80.457143v-475.428571c0-43.885714 36.571429-80.457143 80.457142-80.457143h504.685715c43.885714 0 80.457143 36.571429 80.457143 80.457143V427.885714c7.314286 43.885714-29.257143 87.771429-80.457143 87.771429zM497.371429 303.542857h65.828571v-182.857143h-65.828571zM234.057143 618.057143v-175.542857h109.714286v73.142857h-43.885715V618.057143C299.885714 735.085714 394.971429 830.171429 512 830.171429s212.114286-95.085714 212.114286-212.114286v-109.714286h65.828571V618.057143C782.628571 771.657143 665.6 896 512 896S234.057143 771.657143 234.057143 618.057143z"  horiz-adv-x="1024" />

    
    <glyph glyph-name="qiyong1" unicode="&#58971;" d="M819.2 449.828571c14.628571 0 21.942857-7.314286 21.942857-21.942857v-475.428571c0-14.628571-7.314286-21.942857-21.942857-21.942857H314.514286c-14.628571 7.314286-21.942857 14.628571-21.942857 21.942857V427.885714c0 14.628571 7.314286 21.942857 21.942857 21.942857h504.685714m0 65.828572H314.514286c-43.885714 0-80.457143-36.571429-80.457143-80.457143v-475.428571c0-43.885714 36.571429-80.457143 80.457143-80.457143h504.685714c43.885714 0 80.457143 36.571429 80.457143 80.457143V427.885714c0 43.885714-36.571429 87.771429-80.457143 87.771429zM533.942857 303.542857h65.828572v-182.857143h-65.828572zM336.457143 896C182.857143 896 65.828571 771.657143 65.828571 618.057143v-109.714286h65.828572V618.057143C131.657143 735.085714 226.742857 830.171429 343.771429 830.171429s212.114286-95.085714 212.114285-212.114286v-109.714286h-51.2v-65.828571h109.714286V618.057143C614.4 771.657143 490.057143 896 336.457143 896z"  horiz-adv-x="1024" />

    
    <glyph glyph-name="xingxing" unicode="&#58972;" d="M1018.326466 516.129159a100.005383 100.005383 0 0 1-78.744396 67.720181l-236.233188 36.222422L601.768611 838.193739a99.217939 99.217939 0 0 1-180.324666 0L319.863674 620.071762 85.205374 580.699564a100.005383 100.005383 0 0 1-78.744396-67.720181 100.792827 100.792827 0 0 1 23.623318-103.155158l171.662784-174.025115L157.650218-10.67085a102.367715 102.367715 0 0 1 40.947086-99.217939 100.005383 100.005383 0 0 1 104.730047-5.512108L512-2.008966l203.947986-113.391931a99.217939 99.217939 0 0 1 104.730046 5.512108 102.367715 102.367715 0 0 1 40.947086 99.217939l-40.159642 246.46996 172.450228 177.962334a101.580271 101.580271 0 0 1 24.410762 102.367715z m-66.145292-59.058297L768.706731 265.72198a31.497758 31.497758 0 0 1-8.661884-27.560539l42.521974-262.218838a38.584754 38.584754 0 0 0-15.748879-37.79731 40.159642 40.159642 0 0 0-42.521974 0L526.173991 60.98655a29.92287 29.92287 0 0 1-28.347982 0l-218.909421-121.266369a40.159642 40.159642 0 0 0-42.521974 0 38.584754 38.584754 0 0 0-15.748879 37.79731l42.521974 262.218838a31.497758 31.497758 0 0 1-7.87444 25.985651L71.818826 457.858306a37.79731 37.79731 0 0 0-8.661883 38.584754 39.372198 39.372198 0 0 0 31.497758 25.985651l250.407179 38.584754A29.92287 29.92287 0 0 1 367.110311 580.699564L472.627802 810.6332a39.372198 39.372198 0 0 0 71.6574 0L656.889689 580.699564a29.92287 29.92287 0 0 1 22.835874-17.323767l250.40718-38.584754a39.372198 39.372198 0 0 0 31.497758-25.985651 38.584754 38.584754 0 0 0-9.449327-41.73453zM278.916588 442.896871a31.497758 31.497758 0 0 0 0 62.208073l135.440361 29.92287L456.091479 659.44396a31.497758 31.497758 0 1 0 59.058297-21.260987l-49.60897-140.952469a31.497758 31.497758 0 0 0-22.835874-19.686099l-152.764129-33.072646z"  horiz-adv-x="1024" />

    
    <glyph glyph-name="shenpi" unicode="&#58973;" d="M980.114286-10.971429H36.571429c-21.942857 0-36.571429 14.628571-36.571429 36.571429v146.285714c0 21.942857 14.628571 36.571429 36.571429 36.571429h351.085714V362.057143C292.571429 413.257143 234.057143 501.028571 234.057143 618.057143 234.057143 771.657143 358.4 896 512 896s277.942857-124.342857 277.942857-277.942857c0-102.4-65.828571-204.8-153.6-256v-153.6h351.085714c21.942857 0 36.571429-14.628571 36.571429-36.571429V18.285714c-14.628571-14.628571-29.257143-29.257143-43.885714-29.257143zM73.142857 54.857143h877.714286v87.771428H599.771429c-21.942857 0-36.571429 14.628571-36.571429 36.571429V384c0 14.628571 7.314286 29.257143 21.942857 29.257143 87.771429 36.571429 131.657143 109.714286 131.657143 197.485714C716.8 727.771429 621.714286 822.857143 504.685714 822.857143 387.657143 815.542857 292.571429 720.457143 292.571429 610.742857c0-87.771429 51.2-168.228571 131.657142-204.8 14.628571-7.314286 21.942857-14.628571 21.942858-29.257143V164.571429c0-21.942857-14.628571-36.571429-36.571429-36.571429H65.828571l7.314286-73.142857z m-65.828571-124.342857h994.742857v-58.514286H7.314286v58.514286z"  horiz-adv-x="1024" />

    
    <glyph glyph-name="lingdang-" unicode="&#58974;" d="M936.228571 157.257143l-65.828571 51.2c-14.628571 7.314286-51.2 58.514286-51.2 73.142857V486.4 625.371429c0 36.571429-29.257143 51.2-58.514286 80.457142-29.257143 21.942857-58.514286 43.885714-95.085714 65.828572-14.628571 0-29.257143 7.314286-43.885714 7.314286v36.571428c0 43.885714-29.257143 80.457143-73.142857 80.457143S468.114286 859.428571 468.114286 815.542857v-36.571428c-7.314286 0-29.257143-7.314286-36.571429-7.314286-36.571429-14.628571-73.142857-43.885714-102.4-65.828572-21.942857-29.257143-51.2-43.885714-51.2-87.771428V274.285714c0-14.628571-43.885714-65.828571-51.2-73.142857l-65.828571-51.2c-7.314286-7.314286-14.628571-21.942857-21.942857-36.571428v-43.885715c7.314286-14.628571 14.628571-29.257143 21.942857-36.571428 14.628571-7.314286 29.257143-14.628571 43.885714-14.628572h687.542857c14.628571 0 29.257143 7.314286 43.885714 14.628572 14.628571 7.314286 21.942857 21.942857 21.942858 36.571428 7.314286 14.628571 7.314286 29.257143 0 43.885715 0 21.942857-7.314286 36.571429-21.942858 43.885714z m-95.085714 7.314286l65.828572-51.2c7.314286-7.314286 7.314286-14.628571 7.314285-21.942858 0-7.314286-7.314286-14.628571-14.628571-14.628571H204.8c-7.314286 0-14.628571 7.314286-14.628571 14.628571s0 14.628571 7.314285 21.942858l65.828572 51.2c21.942857 21.942857 80.457143 80.457143 80.457143 117.028571V486.4c0 138.971429 65.828571 248.685714 204.8 248.685714s197.485714-109.714286 197.485714-248.685714v-204.8c7.314286-36.571429 65.828571-95.085714 95.085714-117.028571zM548.571429 837.485714c14.628571 0 21.942857-7.314286 21.942857-21.942857v-21.942857h-43.885715v21.942857c0 14.628571 7.314286 21.942857 21.942858 21.942857zM446.171429-25.6c0-58.514286 43.885714-102.4 102.4-102.4 58.514286 0 102.4 43.885714 102.4 102.4H446.171429zM285.257143 771.657143s7.314286 7.314286 7.314286 14.628571 0 14.628571-7.314286 21.942857c-7.314286 7.314286-14.628571 7.314286-21.942857 7.314286-7.314286 0-14.628571 0-14.628572-7.314286-51.2-36.571429-87.771429-87.771429-117.028571-138.971428-29.257143-58.514286-51.2-117.028571-58.514286-182.857143 0-14.628571 7.314286-29.257143 21.942857-29.257143 14.628571 0 21.942857 7.314286 29.257143 21.942857 14.628571 117.028571 73.142857 219.428571 160.914286 292.571429z m680.228571-102.4c-29.257143 51.2-65.828571 102.4-117.028571 138.971428-7.314286 0-14.628571 7.314286-14.628572 7.314286-7.314286 0-14.628571 0-21.942857-7.314286-7.314286-14.628571-7.314286-29.257143 0-36.571428 87.771429-73.142857 138.971429-175.542857 153.6-285.257143 0-14.628571 14.628571-21.942857 29.257143-21.942857 7.314286 0 14.628571 7.314286 14.628572 7.314286 14.628571 0 14.628571 7.314286 14.628571 14.628571-7.314286 65.828571-29.257143 124.342857-58.514286 182.857143z m0 0"  horiz-adv-x="1024" />

    
    <glyph glyph-name="xiaowaizhuanye" unicode="&#58975;" d="M739.681762 611.677373h227.31192a57.010707 57.010707 0 0 0 57.010707-57.010706v-625.65596a57.010707 57.010707 0 0 0-57.010707-57.010707H57.015095a57.010707 57.010707 0 0 0-57.010706 57.741613V838.989293A57.010707 57.010707 0 0 0 57.015095 896H511.638935a57.010707 57.010707 0 0 0 57.010707-57.010707v-795.957173h114.021413v511.634547a57.010707 57.010707 0 0 0 57.010707 57.010706z m-511.634547 112.559601H114.025802V610.946467h113.290507V723.506067z m227.31192 0H341.337722V610.946467h113.290507V723.506067zM226.585402 496.925054H114.025802V384.365453h113.290507V496.194147z m227.31192 0H341.337722V384.365453h113.290507V496.194147zM226.585402 269.613133H114.025802v-112.5596h113.290507V268.882227z m227.31192 0H341.337722v-112.5596h113.290507V268.882227z m455.354747 227.311921H796.692469V384.365453h114.021413V496.194147z m0-227.311921H796.692469v-112.5596h114.021413V268.882227z"  horiz-adv-x="1024" />

    
    <glyph glyph-name="xiaoneizhuanye" unicode="&#58976;" d="M512 896l512-241.371429v-102.4H0V654.628571zM753.371429 457.142857h160.914285v-343.771428h-160.914285V457.142857zM0 18.285714h1024v-146.285714H0zM431.542857 457.142857h160.914286v-343.771428H431.542857zM109.714286 457.142857h160.914285v-343.771428H109.714286z"  horiz-adv-x="1024" />

    
    <glyph glyph-name="jieshi" unicode="&#58977;" d="M512 896C230.4 896 0 665.6 0 384s230.4-512 512-512 512 230.4 512 512-230.4 512-512 512z m0-832c-38.4 0-64 25.6-64 64s25.6 64 64 64 64-25.6 64-64-25.6-64-64-64z m0 192c-64 0-128 256-128 320s64 128 128 128 128-70.4 128-128c0 0-64-320-128-320z"  horiz-adv-x="1024" />

    
    <glyph glyph-name="xiazai" unicode="&#58978;" d="M783.058824 655.058824h120.470588a131.192471 131.192471 0 0 0 120.470588-120.470589v-542.117647a134.144 134.144 0 0 0-120.470588-120.470588H120.470588a134.023529 134.023529 0 0 0-120.470588 120.470588V534.588235a132.517647 132.517647 0 0 0 120.470588 120.470589h120.470588v-60.235295H120.470588a62.403765 62.403765 0 0 1-60.235294-60.235294v-542.117647a62.704941 62.704941 0 0 1 60.235294-60.235294h783.058824a62.644706 62.644706 0 0 1 60.235294 60.235294V534.588235a64.752941 64.752941 0 0 1-60.235294 60.235294h-120.470588V655.058824z m-120.470589-240.941177l-120.470588-120.470588V835.764706a64.090353 64.090353 0 0 1-34.635294 60.235294C487.664941 896 481.882353 855.642353 481.882353 835.764706v-542.117647L361.411765 414.117647a60.235294 60.235294 0 0 1-63.728941-21.202823 36.141176 36.141176 0 0 1 0-51.260236l184.32-173.357176a5.601882 5.601882 0 0 1 5.662117-2.891294c2.831059 0 2.831059-2.770824 5.662118-2.770824a5.662118 5.662118 0 0 0 5.662117-2.831059h25.539765a370.386824 370.386824 0 0 0 5.662118 5.601883 2.770824 2.770824 0 0 1 2.831059 2.891294L722.823529 341.835294a36.141176 36.141176 0 0 1 2.831059 51.260235A60.958118 60.958118 0 0 1 662.588235 414.117647z m0 0"  horiz-adv-x="1024" />

    
    <glyph glyph-name="pk" unicode="&#58979;" d="M512-128h-6.023529 6.023529z m0 1024L102.4 787.576471V414.117647c0-277.082353 240.941176-512 409.6-542.117647 174.682353 42.164706 409.6 283.105882 409.6 542.117647V787.576471L512 896z m361.411765-463.811765c0-259.011765-204.8-439.717647-361.411765-487.905882-132.517647 36.141176-361.411765 234.917647-361.411765 487.905882V739.388235l361.411765 78.305883 361.411765-78.305883v-307.2zM246.964706 329.788235l48.188235 307.2h180.705883c12.047059 0 24.094118-6.023529 36.141176-12.047059 12.047059-6.023529 24.094118-18.070588 30.117647-30.117647 0-18.070588 6.023529-36.141176 0-48.188235 0-18.070588-6.023529-30.117647-12.047059-48.188235-6.023529-12.047059-18.070588-24.094118-30.117647-36.141177-12.047059-6.023529-24.094118-12.047059-36.141176-12.047058-18.070588 0-30.117647-6.023529-48.188236-6.02353H337.317647l-42.164706-114.447059h-48.188235z m192.752941 156.611765h48.188235c6.023529 6.023529 0-6.023529 0 0V534.588235v48.188236h-48.188235c-6.023529 0 6.023529 0 0 0H343.341176v-102.4h96.376471z m240.941177-259.011765l-48.188236 102.4-78.305882-48.188235-6.02353-48.188235h-60.235294l48.188236 252.988235h48.188235v-102.4l96.376471 102.4h96.37647l-120.470588-114.447059 120.470588-144.564706h-96.37647z"  horiz-adv-x="1024" />

    
    <glyph glyph-name="fuzeren" unicode="&#58981;" d="M0.341675 384A511.317333 511.317333 0 1 1 511.659008 896 511.317333 511.317333 0 0 1 0.341675 384zM267.264341 87.722667a21.162667 21.162667 0 0 0-19.114666 21.162666v58.026667a283.989333 283.989333 0 0 0 166.570666 264.192l11.605334 4.778667-10.24 8.874666a175.445333 175.445333 0 0 0-59.392 130.389334 161.792 161.792 0 0 0 154.965333 168.618666 161.792 161.792 0 0 0 154.965333-166.570666 170.666667 170.666667 0 0 0-60.074666-131.754667l-10.24-7.509333 11.605333-4.778667a283.989333 283.989333 0 0 0 167.253333-263.509333v-58.026667a19.797333 19.797333 0 0 0-19.114666-21.162667H267.264341z"  horiz-adv-x="1024" />

    
    <glyph glyph-name="zhuanyi" unicode="&#58982;" d="M896.81984 646.4c6.4-6.4 12.8-6.4 25.6-6.4h12.8c12.8 0 25.6 44.8 25.6 64V838.4c0 19.2-12.8 57.6-32 57.6s-32-44.8-32-64v-89.6L768.81984 883.2c-12.8 12.8-38.4 6.4-44.8 0-12.8-12.8-19.2-38.4-6.4-51.2L896.81984 646.4zM109.61984 179.2c-12.8 12.8-38.4 25.6-51.2 12.8-6.4-6.4-6.4-6.4-6.4-12.8-6.4 6.4-12.8 12.8-19.2 12.8-19.2 0-32-44.8-32-64v-128c0-19.2 6.4-64 25.6-64 19.2 0 38.4 44.8 38.4 64v128l140.8-147.2c12.8-19.2 32-19.2 44.8-6.4 12.8 12.8 19.2 38.4 6.4 51.2l-147.2 153.6zM896.81984 576h-256V832c0 32-6.4 64-64 64H64.81984C32.81984 896 0.81984 889.6 0.81984 832v-512c-6.4-25.6 25.6-57.6 64-64h256v-256c0-44.8 32-64 64-64h512c32 0 64 19.2 64 64V512c0 44.8-38.4 64-64 64zM320.81984 512v-192H64.81984V768 832h512v-256H384.81984c-32 0-64-25.6-64-64z m256 0v-192H384.81984V448 512h192z m320-64v-448H384.81984v256h192c38.4 0 64 25.6 64 64V512h256v-64z"  horiz-adv-x="1024" />

    
    <glyph glyph-name="mobanshezhi" unicode="&#58983;" d="M288 320h-128c-19.2 0-32-12.8-32-32s12.8-32 32-32h128c19.2 0 32 12.8 32 32S307.2 320 288 320z m-128 320h448c19.2 0 32 12.8 32 32S627.2 704 608 704h-448c-19.2 0-32-12.8-32-32s12.8-32 32-32z m256-128h-256c-19.2 0-32-12.8-32-32s12.8-32 32-32h256c19.2 0 32 12.8 32 32S435.2 512 416 512z m601.6-294.4c0 19.2-12.8 32-32 38.4h-6.4c-19.2 6.4-32 12.8-38.4 32-6.4 12.8-12.8 32-6.4 51.2 6.4 19.2 0 38.4-12.8 51.2-25.6 32-57.6 51.2-89.6 64V761.6C832 838.4 780.8 896 704 896H128C51.2 896 0 838.4 0 768v-710.4C0-12.8 51.2-64 128-64h384c25.6-19.2 89.6-51.2 121.6-64H652.8c12.8 0 25.6 6.4 32 12.8v6.4c12.8 12.8 25.6 19.2 44.8 19.2 19.2 0 32-6.4 44.8-19.2 12.8-12.8 19.2-12.8 32-12.8h12.8c38.4 12.8 64 32 89.6 57.6 12.8 12.8 25.6 32 19.2 51.2-6.4 19.2-6.4 38.4 6.4 57.6 6.4 12.8 19.2 25.6 38.4 32h6.4s6.4 0 6.4 6.4c12.8 6.4 19.2 19.2 19.2 32v6.4c19.2 6.4 19.2 25.6 19.2 44.8 0 19.2 0 38.4-6.4 51.2zM512 0H128c-38.4 0-64 32-64 64V768c0 32 25.6 64 64 64h576c38.4 0 64-32 64-64v-320c-6.4-6.4-25.6-25.6-32-25.6-19.2 0-38.4 6.4-51.2 19.2-25.6 25.6-57.6 6.4-70.4 6.4-32-19.2-51.2-32-76.8-51.2-12.8-12.8-19.2-32-12.8-51.2 6.4-19.2 6.4-38.4-6.4-57.6-12.8-6.4-25.6-19.2-44.8-25.6h-6.4s-6.4 0-6.4-6.4c-6.4-6.4-12.8-25.6-12.8-38.4l6.4-6.4c-6.4-19.2 0-32 0-51.2 0-19.2-6.4-44.8 0-64 0-19.2 6.4-25.6 25.6-32h6.4c19.2-6.4 32-12.8 38.4-32 0-6.4-12.8-19.2-12.8-32z m441.6 128c-32-12.8-44.8-38.4-57.6-64-12.8-25.6-25.6-57.6-19.2-89.6-12.8-12.8-38.4-19.2-57.6-25.6-25.6 19.2-57.6 32-83.2 32-32 0-64-12.8-89.6-32-12.8 6.4-44.8 6.4-57.6 19.2 0 6.4-6.4 6.4-6.4 12.8 6.4 32 12.8 70.4 0 96-19.2 32-32 51.2-64 57.6v32c-6.4 6.4-6.4 12.8 0 25.6 19.2 6.4 38.4 44.8 51.2 70.4 12.8 25.6 25.6 57.6 19.2 89.6 19.2 12.8 38.4 19.2 57.6 32 25.6-19.2 57.6-32 96-32 32 0 57.6 12.8 76.8 32 19.2-6.4 38.4-19.2 51.2-32-6.4-32 0-64 12.8-96 19.2-32 44.8-38.4 76.8-51.2 0-12.8 6.4-38.4 6.4-51.2-6.4 0-12.8-12.8-12.8-25.6z m-217.6 128c-51.2 0-96-44.8-96-96s44.8-96 96-96 96 44.8 96 96-44.8 96-96 96z m0-128c-19.2 0-32 12.8-32 32s12.8 32 32 32 32-12.8 32-32-12.8-32-32-32z"  horiz-adv-x="1024" />

    
    <glyph glyph-name="fabu" unicode="&#58984;" d="M256 384h448c19.2 0 51.2 12.8 51.2 38.4 0 19.2-32 25.6-51.2 25.6H256c-19.2 0-51.2-6.4-51.2-25.6 0-25.6 32-38.4 51.2-38.4z m691.2 211.2L646.4 896h-512C96 896 64 857.6 64 825.6v-876.8c0-38.4 32-76.8 70.4-76.8H256c32 0 32 64 0 64H192c-19.2 0-64 19.2-64 64V768c0 19.2 25.6 64 64 64h384v-256c0-32 38.4-64 64-64h256v-512c0-19.2-44.8-64-64-64h-128c-25.6-6.4-32-64 19.2-64h166.4c32 0 70.4 38.4 70.4 70.4V569.6c0 6.4-6.4 19.2-12.8 25.6zM704 576c-19.2 0-64 44.8-64 64V768l192-192h-128zM512 320c-12.8 12.8-57.6 6.4-64 0l-128-134.4c-12.8-12.8-25.6-44.8-12.8-57.6 12.8-12.8 44.8 0 57.6 12.8L448 236.8V-64c0-76.8 64-76.8 64 0v307.2l83.2-76.8c12.8-12.8 44.8-44.8 64-38.4 12.8 12.8 38.4 25.6 19.2 38.4L512 320zM256 640h128c19.2 0 51.2 12.8 51.2 38.4S403.2 704 384 704H256c-19.2 0-51.2-6.4-51.2-25.6s32-38.4 51.2-38.4z"  horiz-adv-x="1024" />

    
    <glyph glyph-name="shujuzhuanyi" unicode="&#58985;" d="M128 640h192V832h512v-448h64V896H192L64 768v-832h448v64H128V640z m128 192v-128H128l128 128z m384-704h384l-128 192v-128h-256v-64z m128-256v128h192v64h-320l128-192zM640 576v-320h64V576h-64z m-192-320h64V512H448v-256z m-128 0V448H256v-192h64z"  horiz-adv-x="1024" />

    
    <glyph glyph-name="fankui1" unicode="&#58986;" d="M512 896C230.4 896 0 665.6 0 384c0-97.28 25.6-189.44 76.8-271.36 25.6-46.08-40.96-133.12-40.96-209.92 0-30.72 199.68 46.08 235.52 25.6 71.68-35.84 153.6-56.32 240.64-56.32 281.6 0 512 230.4 512 512S793.6 896 512 896z m153.6-358.4H307.2V588.8h409.6v-51.2h-51.2z m0-153.6H307.2V435.2h409.6v-51.2h-51.2z m-204.8-153.6H307.2v51.2h204.8v-51.2H460.8z m87.04-15.36"  horiz-adv-x="1024" />

    
    <glyph glyph-name="gengduo" unicode="&#58987;" d="M512 896a512 512 0 1 1 512-512 512 512 0 0 1-512 512z m261.12-512l-402.285714-272.822857v73.142857l299.154285 218.697143L370.834286 566.857143v73.142857l402.285714-219.428571z"  horiz-adv-x="1024" />

    
    <glyph glyph-name="qingchu" unicode="&#58989;" d="M992-64H448l550.4 550.4c6.4 6.4 12.8 19.2 19.2 25.6v6.4 6.4c6.4 19.2 0 44.8-12.8 64 0 6.4-6.4 6.4-12.8 12.8L729.6 864c-12.8 19.2-25.6 25.6-44.8 32h-38.4l-38.4-19.2L25.6 281.6c-32-32-32-89.6 0-121.6L249.6-64H160c-19.2 0-32-12.8-32-32s12.8-32 32-32h832c19.2 0 32 12.8 32 32s-19.2 32-32 32zM377.6 518.4L640 256l-294.4-294.4-262.4 262.4 294.4 294.4z m0 0"  horiz-adv-x="1024" />

    
    <glyph glyph-name="bianji2" unicode="&#58990;" d="M74.531507-124.759817s7.291142-7.291142 0 0c0 0 7.291142 0 0 0z m678.076164 933.266118L657.822831 874.126575C643.240548 888.708858 614.075982 896 592.202557 896 548.455708 896 512 874.126575 490.126575 844.962009L74.531507 239.797261c-7.291142-7.291142 0-65.620274 0-72.911416v-218.734246c0-14.582283-7.291142-65.620274 0-72.911416l313.519087 160.405114c7.291142 0 14.582283 7.291142 21.873424 14.582283l371.848219 576.000183c21.873425 29.164566 29.164566 65.620274 21.873425 102.075981-7.291142 29.164566-29.164566 58.329132-51.037991 80.202557z m-43.746849-123.949406l-364.557078-561.417899L147.442923 21.063014v145.822831l415.595068 619.747032c7.291142 14.582283 29.164566 21.873425 43.746849 7.291141l87.493699-65.620274c7.291142-7.291142 14.582283-14.582283 14.582283-21.873424 7.291142-7.291142 0-14.582283 0-21.873425zM439.088585-124.759817h72.911415v72.911416H439.088585v-72.911416z m145.82283 0h72.911416v72.911416H584.911415v-72.911416z m145.822831 0h72.911416v72.911416h-72.911416v-72.911416z m145.822831 72.911416v-72.911416h72.911416v72.911416h-72.911416z"  horiz-adv-x="1024" />

    
    <glyph glyph-name="jinyongzhong" unicode="&#58991;" d="M832 512c0 217.6-57.6 384-320 384-211.2 0-320-140.8-320-320v-64c-25.6 0-64-32-64-64v-512c0-38.4 38.4-64 64-64h640c32 0 64 32 64 64V448c0 38.4-38.4 64-64 64z m-256-339.2v-115.2c0-19.2-12.8-32-32-32s-32 12.8-32 32v115.2c-25.6 12.8-64 12.8-64 64C448 281.6 473.6 320 544 320c76.8 0 96-38.4 96-83.2-6.4-51.2-38.4-51.2-64-64zM256 512V576c0 121.6 76.8 256 256 256 230.4 6.4 256-153.6 256-320H256z"  horiz-adv-x="1024" />

    
    <glyph glyph-name="yulan1" unicode="&#58992;" d="M870.4 896H153.6C73.142857 896 0 830.171429 0 742.4v-716.8C0-54.857143 73.142857-128 153.6-128h585.142857c21.942857 0 43.885714 21.942857 43.885714 43.885714s-29.257143 29.257143-51.2 29.257143H146.285714c-36.571429 0-73.142857 36.571429-73.142857 73.142857V749.714286c0 36.571429 36.571429 73.142857 73.142857 73.142857h731.428572c36.571429 0 73.142857-36.571429 73.142857-73.142857v-658.285715c0-21.942857 7.314286-51.2 29.257143-51.2 21.942857 0 43.885714 21.942857 43.885714 43.885715v658.285714C1024 830.171429 950.857143 896 870.4 896z m-124.342857-702.171429c36.571429 51.2 58.514286 124.342857 58.514286 190.171429 0 73.142857-29.257143 168.228571-80.457143 212.114286C665.6 654.628571 585.142857 676.571429 512 676.571429s-160.914286-21.942857-212.114286-73.142858C248.685714 544.914286 219.428571 457.142857 219.428571 376.685714c0-73.142857 36.571429-175.542857 80.457143-212.114285 73.142857-58.514286 138.971429-73.142857 212.114286-73.142858 65.828571 0 131.657143 14.628571 175.542857 51.2l124.342857-124.342857c7.314286-7.314286 21.942857-14.628571 29.257143-14.628571 7.314286 0 21.942857 0 21.942857 7.314286 14.628571 14.628571 21.942857 36.571429 7.314286 51.2l-124.342857 131.657142z m-241.371429-29.257142C402.285714 164.571429 292.571429 230.4 292.571429 362.057143c-7.314286 124.342857 58.514286 241.371429 219.428571 248.685714 124.342857 0 219.428571-80.457143 219.428571-226.742857 7.314286-146.285714-124.342857-219.428571-226.742857-219.428571z"  horiz-adv-x="1024" />

    
    <glyph glyph-name="zhongmingming" unicode="&#58994;" d="M857.6 832H102.4C44.8 832 0 787.2 0 729.6v-697.6c0-51.2 44.8-96 102.4-96h755.2c57.6 0 102.4 44.8 102.4 102.4V729.6c0 57.6-44.8 102.4-102.4 102.4z m38.4-768c0-32-32-64-64-64H128c-38.4 0-64 32-64 64V704c0 32 32 64 64 64h704c32 0 64-32 64-64v-640zM320 576H192v-64h128v-256H192v-64h320v64H384V512h128V576H320z m288-320c-19.2 0-32-12.8-32-32s12.8-32 32-32 32 12.8 32 32-12.8 32-32 32z m128 0c-19.2 0-32-12.8-32-32s12.8-32 32-32 32 12.8 32 32-12.8 32-32 32z"  horiz-adv-x="1024" />

    
    <glyph glyph-name="xiaoxi" unicode="&#58995;" d="M512-128c81.92 0 128 76.8 128 153.6H384c0-76.8 46.08-153.6 128-153.6z m384 256c-46.08 0-51.2 204.8-51.2 204.8V435.2c0 179.2-102.4 327.68-256 358.4-10.24 5.12 10.24-5.12 0 0 0 5.12 0-5.12 0 0 0 51.2-25.6 102.4-76.8 102.4S435.2 844.8 435.2 793.6c0-5.12 0 5.12 0 0-133.12-46.08-261.12-97.28-256-358.4v-102.4s-5.12-204.8-51.2-204.8c-25.6 0-51.2-5.12-51.2-30.72s25.6-20.48 51.2-20.48h768c25.6 0 51.2-5.12 51.2 20.48s-25.6 30.72-51.2 30.72z m0 0"  horiz-adv-x="1024" />

    
    <glyph glyph-name="shouqijiantou" unicode="&#58996;" d="M512 725.333333c-17.066667 0-34.133333-8.533333-42.666667-17.066666L17.066667 221.866667c-25.6-25.6-17.066667-59.733333 0-76.8 25.6-25.6 59.733333-17.066667 76.8 0L512 588.8l418.133333-443.733333c25.6-25.6 59.733333-25.6 76.8 0 25.6 25.6 25.6 59.733333 0 76.8L554.666667 708.266667C537.6 716.8 529.066667 725.333333 512 725.333333z m0 0"  horiz-adv-x="1026" />

    
    <glyph glyph-name="zhankaijiantou" unicode="&#58997;" d="M512 128c-17.066667 0-34.133333 8.533333-42.666667 17.066667L17.066667 631.466667c-25.6 25.6-17.066667 59.733333 0 76.8 25.6 25.6 59.733333 17.066667 76.8 0L512 264.533333l418.133333 443.733334c25.6 25.6 59.733333 25.6 76.8 0 25.6-25.6 25.6-59.733333 0-76.8L554.666667 145.066667c-17.066667-8.533333-25.6-17.066667-42.666667-17.066667z m0 0"  horiz-adv-x="1026" />

    
    <glyph glyph-name="video" unicode="&#58988;" d="M0 768l0-768 1024 0 0 768-1024 0zM192 64l-128 0 0 128 128 0 0-128zM192 320l-128 0 0 128 128 0 0-128zM192 576l-128 0 0 128 128 0 0-128zM768 64l-512 0 0 640 512 0 0-640zM960 64l-128 0 0 128 128 0 0-128zM960 320l-128 0 0 128 128 0 0-128zM960 576l-128 0 0 128 128 0 0-128zM384 576l0-384 256 192z"  horiz-adv-x="1024" />

    
    <glyph glyph-name="text" unicode="&#59034;" d="M288.633235 607.300762l446.731484 0L735.364719 474.732467l-13.261025 0.088004c-7.720845 30.709419-16.270569 52.302203-25.91216 65.759703-9.639544 13.458523-22.638603 24.233937-39.127136 32.477692-9.16166 4.03285-25.345248 6.083555-48.682769 6.083555l-51.123354 0-0.611937-336.608388c-1.394766-23.839965 1.394766-18.059308 0-33.261545-0.611937-6.783497 13.173021-20.022009 21.375843-24.733311 8.28878-4.602831 33.500998-5.692652 47.63388-5.692652l19.107173 0 0-18.735713L378.145921 160.109814 378.145921 180.11238l21.98471 0c14.394848 0 31.495318 1.176802 40.045041 6.194072 6.457062 3.533476 26.959002 1.373277 27.176966 24.25338 0.87288 31.494295 2.7486 8.723685 0 31.974225L467.352639 579.142445l-50.906413 0c-33.414017 0-57.537438-6.957459-72.5432-21.00336-21.331841-19.629059-34.767851-47.197952-40.35101-83.491553l-15.485693 0L288.633235 607.300762zM958.709483 651.969101l0-536.025183c0-98.629321-79.960123-178.608887-178.718381-178.608887L243.964896-62.664969c-98.585319 0-178.674379 79.979566-178.674379 178.608887L65.290517 651.969101c0 98.717326 80.090083 178.696892 178.674379 178.696892l536.026206 0C878.74936 830.665992 958.709483 750.685403 958.709483 651.969101zM869.413737 607.300762c0 74.003458-60.067051 134.071532-134.049019 134.071532L288.633235 741.372294c-73.981968 0-133.919059-60.067051-133.919059-134.071532l0-446.601524c0-74.091462 59.937091-134.049019 133.919059-134.049019l446.731484 0c73.981968 0 134.049019 59.957557 134.049019 134.049019L869.413737 607.300762z"  horiz-adv-x="1024" />

    
    <glyph glyph-name="quangou" unicode="&#58993;" d="M954.854886 384C954.854886 628.581999 756.581999 826.854886 512 826.854886 267.418001 826.854886 69.145114 628.581999 69.145114 384 69.145114 139.418001 267.418001-58.854886 512-58.854886 756.581999-58.854886 954.854886 139.418001 954.854886 384ZM97.716397 384C97.716397 612.802516 283.197484 798.283603 512 798.283603 740.802516 798.283603 926.283603 612.802516 926.283603 384 926.283603 155.197484 740.802516-30.283603 512-30.283603 283.197484-30.283603 97.716397 155.197484 97.716397 384ZM437.763438 209.330967C452.286479 190.664886 479.468285 190.37595 494.339774 208.842641L724.074654 494.116225C733.971792 506.406009 732.03217 524.392062 719.742386 534.2892 707.452603 544.186337 689.466549 542.246715 679.569412 529.95693L449.834532 244.683347C458.122119 254.97447 474.789691 254.797298 482.863219 244.420603L367.816205 392.287491C358.126469 404.741451 340.175457 406.982299 327.721497 397.292563 315.267536 387.602829 313.026689 369.651815 322.716424 357.197855L437.763438 209.330967Z"  horiz-adv-x="1024" />

    
    <glyph glyph-name="icon--" unicode="&#59252;" d="M811.52 422.4L330.24 734.72c-28.16 15.36-61.44 7.68-61.44-40.96V76.8c0-51.2 35.84-58.88 61.44-40.96l481.28 314.88c28.16 15.36 28.16 53.76 0 71.68zM320 97.28V673.28L775.68 384 320 97.28z"  horiz-adv-x="1024" />

    
    <glyph glyph-name="zhongxinshiyang" unicode="&#58980;" d="M203.946667 195.413333l146.773333 215.466667H248.746667a315.733333 315.733333 0 1 0 106.24-264.533333L301.226667 76.8a404.053333 404.053333 0 1 1-140.373334 334.08H56.746667l147.2-215.466667z"  horiz-adv-x="1024" />

    
    <glyph glyph-name="shanchu3" unicode="&#58933;" d="M789.8 613.7l-13.9 13.9c-3.8 3.9-8.8 5.8-13.9 5.8-5 0-10.1-1.9-13.9-5.8L511.3 390.9 274.6 627.6c-3.8 3.9-8.9 5.8-13.9 5.8s-10.1-1.9-13.9-5.8l-13.9-13.9c-7.6-7.7-7.6-20.2 0-27.9l236.7-236.7-222.9-222.7c-7.7-7.7-7.7-20.2 0-27.9l13.9-13.9c3.9-3.9 8.9-5.8 13.9-5.8s10.1 1.9 13.9 5.8l222.8 222.8L734 84.60000000000002c3.8-3.9 8.9-5.8 13.9-5.8 5.1 0 10.1 1.9 13.9 5.8l13.9 13.9c7.7 7.7 7.7 20.2 0 27.9L553.1 349.20000000000005l236.7 236.7c7.7 7.7 7.7 20.2 0 27.8z"  horiz-adv-x="1024" />

    
    <glyph glyph-name="zanting_da" unicode="&#58962;" d="M292 64c-19.8 0-36 16.2-36 36V668c0 19.8 16.2 36 36 36s36-16.2 36-36v-568c0-19.8-16.2-36-36-36zM668 64c-19.8 0-36 16.2-36 36V668c0 19.8 16.2 36 36 36s36-16.2 36-36v-568c0-19.8-16.2-36-36-36z"  horiz-adv-x="1024" />

    
    <glyph glyph-name="eyes" unicode="&#58882;" d="M843.217455 505.018182a74.472727 74.472727 0 1 0-74.472728 76.241454 122.042182 122.042182 0 0 0 14.801455-2.606545A225.931636 225.931636 0 0 1 652.194909 621.940364a237.661091 237.661091 0 0 1 0-474.763637A234.030545 234.030545 0 0 1 882.501818 384a239.429818 239.429818 0 0 1-42.542545 136.098909 62.277818 62.277818 0 0 0 3.258182-15.080727z m448.325818-97.931637C1183.930182 608.162909 930.164364 896 652.194909 896S119.714909 608.162909 12.846545 406.993455l-12.846545-22.993455 12.846545-22.900364C119.714909 160.581818 373.573818-128 652.194909-128s532.107636 288.581818 639.627636 489.285818L1303.831273 384zM652.194909-33.605818c-229.282909 0-446.836364 252.648727-545.698909 417.605818C205.358545 549.608727 422.539636 801.698909 652.194909 801.698909S1099.031273 549.701818 1197.800727 384C1098.286545 219.042909 881.198545-33.605818 652.194909-33.605818z m0 0"  horiz-adv-x="1303" />

    
    <glyph glyph-name="move" unicode="&#58884;" d="M787.086856 186.834743V895.212913h78.708686v-708.37817h236.126057l-277.762952-313.103152L550.960799 186.834743h236.126057zM0-128h157.417371v78.708686H0v-78.708686z m236.126057 0h78.708686v78.708686H236.126057v-78.708686z m157.417371 0h72.726826L472.252114-49.291314H393.543428v-78.708686zM0 186.834743h78.708686V344.252114H0v-157.417371z m157.417371 78.708685h78.708686V344.252114H157.417371v-78.708686z m157.417372 0h157.417371V344.252114H314.834743v-78.708686z m-314.834743-236.126057h78.708686v78.708686H0v-78.708686z m393.543428 0h78.708686V186.834743H393.543428v-157.417372z m0 472.252114V816.504228H78.708686v-314.834743h314.834742z m78.708686-78.708686H0V895.212913h472.252114v-472.252114z m393.543428 157.417372h236.126057L824.158647 896 550.960799 580.378171h236.126057"  horiz-adv-x="1102" />

    
    </font>
</defs>
</svg>
