<?xml version="1.0" standalone="no"?><!DOCTYPE svg PUBLIC "-//W3C//DTD SVG 1.1//EN" "http://www.w3.org/Graphics/SVG/1.1/DTD/svg11.dtd"><svg t="1721123104719" class="icon" viewBox="0 0 1052 1024" version="1.1" xmlns="http://www.w3.org/2000/svg" p-id="10430" xmlns:xlink="http://www.w3.org/1999/xlink" width="205.46875" height="200"><path d="M485.57272261 3.09045728c-173.33050413 0-314.45366381 141.08388167-314.45366381 314.49294183 0 173.2912275 141.00532839 314.45366381 314.45366381 314.45366382 173.36978215 0 314.49294183-141.16243632 314.49294183-314.45366382 0-173.40905878-141.12315968-314.49294183-314.49294183-314.49294183zM731.84108107 632.03706293c-67.20337426 53.02428761-150.90319541 85.89934592-243.12617784 85.89934592-92.2229838 0-175.84424891-32.99288962-243.20473248-85.89934592-127.53323084 81.02896707-216.33909343 223.3697218-228.51504126 388.21633991 44.65823287 6.0486959 124.11610963 12.56871971 237.47025383 12.56871973h468.3026525c113.43269884 0 192.92985223-6.52002383 237.62736314-12.56871973-12.09739317-164.96445079-100.86397775-307.14809622-228.59359453-388.21633991z" p-id="10431"></path></svg>