<?xml version="1.0" standalone="no"?><!DOCTYPE svg PUBLIC "-//W3C//DTD SVG 1.1//EN" "http://www.w3.org/Graphics/SVG/1.1/DTD/svg11.dtd"><svg t="1721123645750" class="icon" viewBox="0 0 1024 1024" version="1.1" xmlns="http://www.w3.org/2000/svg" p-id="10494" xmlns:xlink="http://www.w3.org/1999/xlink" width="200" height="200"><path d="M189.22666668 227.09333333c24.10666667 0 43.73333333 19.52 43.73333334 43.73333334v182.18666666c0 24.10666667-19.52 43.73333333-43.73333334 43.73333334-24.10666667 0-43.73333333-19.52-43.73333333-43.73333334V270.82666667c0.10666667-24.10666667 19.62666667-43.73333333 43.73333333-43.73333334zM620.26666668 222.82666667c24.10666667 0 43.73333333 19.52 43.73333334 43.73333333v24.96c0 24.10666667-19.52 43.73333333-43.73333334 43.73333333-24.10666667 0-43.73333333-19.52-43.73333333-43.73333333v-24.96c0.10666667-24.10666667 19.62666667-43.73333333 43.73333333-43.73333333z" p-id="10495"></path><path d="M404.80000002 94.82666667c94.93333333 0 171.84 76.90666667 171.84 171.84h87.36c0-143.14666667-116.05333333-259.2-259.2-259.2s-259.2 116.05333333-259.2 259.2h87.36c0-94.93333333 76.90666667-171.84 171.84-171.84zM795.09333335 960.64V474.45333333c-3.62666667-35.62666667-33.06666667-63.68-69.22666667-65.06666666H86.08000002c-40 0-72.53333333 32.42666667-72.64 72.42666666V955.73333333c4.26666667 32.21333333 29.65333333 57.81333333 61.76 62.4H738.13333335c28.8-5.86666667 51.41333333-28.58666667 56.96-57.49333333z" p-id="10496"></path><path d="M325.22666668 713.70666667c0-24.10666667 19.52-43.73333333 43.73333334-43.73333334h70.61333333c24.10666667 0 43.73333333 19.52 43.73333333 43.73333334 0 24.10666667-19.52 43.73333333-43.73333333 43.73333333h-70.61333333c-24.10666667-0.10666667-43.73333333-19.62666667-43.73333334-43.73333333z" p-id="10497"></path></svg>