<svg t="1722329458314" class="icon" viewBox="0 0 1024 1024" version="1.1" xmlns="http://www.w3.org/2000/svg" p-id="1266" width="200" height="200"><path d="M885.98692851 584.02325491h-162.055479V374.08021617l-205.63481536-144.49118373v-91.7982979c58.65811817 10.60485751 165.03809517 40.0996175 212.26285132 2.81691526 0-39.10541211 1.49130809-104.55726711 0-128.74959833-69.92577929 29.49475998-253.02527242 0-253.0252724 0v217.73098097l-205.63481538 144.49118373V584.02325491h-162.05547899c-20.71261235 0-37.44840311 16.73579077-37.44840313 37.44840313v427.3426179h285.00554588v-43.41363547c0-74.06830175 54.01849299-140.68006305 127.75539295-147.14239811 83.18185118-7.29083955 152.94192957 58.16101547 152.94192957 139.85155856v50.70447502h285.00554586V621.47165804c0.33140179-20.54691145-16.40438898-37.44840311-37.11700132-37.44840313z m-387.90580401-9.44495124a98.26063297 98.26063297 0 1 1 98.26063297-98.26063296c0 54.1841939-44.07643907 98.26063297-98.26063297 98.26063296z" p-id="1267"></path></svg>